<svg xmlns="http://www.w3.org/2000/svg" xmlns:xlink="http://www.w3.org/1999/xlink" width="90" height="564" viewBox="0 0 90 564"><defs><style>.a{fill:#fff;}.b{clip-path:url(#a);}.c{fill:#000057;}</style><clipPath id="a"><rect class="a" width="90" height="564" transform="translate(0 1066)"/></clipPath></defs><g class="b" transform="translate(0 -1066)"><path class="c" d="M63.671,89.226C-13.451,205.8,9.043,431.264,94.734,589.635,179.353,748.007,327.169,840.39,316.458,939.372c-10.711,97.882-178.879,202.363-259.214,354.136-81.406,150.673-74.979,348.637,12.853,450.919,88.9,102.281,258.143,108.88,419.884,94.583,161.741-15.4,313.842-53.89,392.035-161.671,79.264-107.781,83.548-287.048,79.264-422.324-3.213-136.375-15-228.759-53.556-299.146-39.632-70.387-106.042-116.579-167.1-137.475S623.873,804.1,584.241,664.422,522.116,239.9,421.429,101.323C319.672-36.152,141.864-27.353,63.671,89.226Z" transform="translate(-1345.42 243.362) rotate(-21)"/></g></svg>