<svg xmlns="http://www.w3.org/2000/svg" xmlns:xlink="http://www.w3.org/1999/xlink" width="1920" height="1028.317" viewBox="0 0 1920 1028.317">
  <defs>
    <clipPath id="clip-path">
      <path id="wave" d="M1920-768.559l-64-4.763c-64-5.123-192-14.111-320-38.377s-256-62.015-384-86.282S896-931.236,768-907.6c-128,24-256,81.518-384,81.518S128-883.6,64-912.362L0-941.122V85.426H1920Z" transform="translate(0 941.122)" fill="#000057"/>
    </clipPath>
  </defs>
  <g id="Group_174" data-name="Group 174" transform="translate(0 -0.294)">
    <g id="Group_47" data-name="Group 47">
      <path id="wave-4" data-name="wave" d="M1920-768.015l-64-4.779c-64-5.139-192-14.155-320-38.5s-256-62.21-384-86.554S896-931.2,768-907.492c-128,24.073-256,81.775-384,81.775s-256-57.7-320-86.554L0-941.122V87.195H1920Z" transform="translate(0 941.416)" fill="#000057"/>
    </g>
    <g id="Mask_Group_6" data-name="Mask Group 6" transform="translate(0 0.307)" clip-path="url(#clip-path)">
      <path id="blob" d="M1439.748,1941.271c165.652-117.726,290.315-288.817,316.749-478.548s-45.473-401.063-129.473-562.589c-85.45-163.062-184.446-277.855-293.921-336.863-110.816-57.582-232.167-60.861-327.031-176.97C911.153,268.71,842.667,36.808,766.218,4.235S603.849,135.4,458.829,208.09C315.2,280.836,111.028,261,36.055,343.833c-75.028,81.351-19.511,263.943,44.46,411.375S218.254,1013.485,311.2,1077.761s205.024,80.5,300.735,257.274c95.766,178.255,173.827,518.485,315.4,654.171C1068.961,2126.373,1275.491,2059.051,1439.748,1941.271Z" transform="matrix(0.438, -0.899, 0.899, 0.438, -607.499, 343.725)" fill="rgba(3,3,135,0.23)"/>
    </g>
    <g id="Mask_Group_5" data-name="Mask Group 5" transform="translate(0 0.307)" clip-path="url(#clip-path)">
      <path id="blob-2" data-name="blob" d="M1439.748,1941.271c165.652-117.726,290.315-288.817,316.749-478.548s-45.473-401.063-129.473-562.589c-85.45-163.062-184.446-277.855-293.921-336.863-110.816-57.582-232.167-60.861-327.031-176.97C911.153,268.71,842.667,36.808,766.218,4.235S603.849,135.4,458.829,208.09C315.2,280.836,111.028,261,36.055,343.833c-75.028,81.351-19.511,263.943,44.46,411.375S218.254,1013.485,311.2,1077.761s205.024,80.5,300.735,257.274c95.766,178.255,173.827,518.485,315.4,654.171C1068.961,2126.373,1275.491,2059.051,1439.748,1941.271Z" transform="matrix(0.438, -0.899, 0.899, 0.438, -1576.5, 983.111)" fill="rgba(0,11,118,0.44)"/>
    </g>
    <g id="Mask_Group_7" data-name="Mask Group 7" transform="translate(0 0.307)" clip-path="url(#clip-path)">
      <path id="blob-3" data-name="blob" d="M1217.991,1642.267c140.137-99.593,245.6-244.332,267.961-404.84s-38.469-339.289-109.531-475.937c-72.289-137.947-156.036-235.058-248.65-284.978C1034.024,427.8,931.363,425.026,851.111,326.8,770.813,227.322,712.876,31.139,648.2,3.583S510.842,114.544,388.158,176.039C266.655,237.581,93.927,220.8,30.5,290.874-32.97,359.695,14,514.163,68.114,638.887s116.524,218.5,195.156,272.872,173.445,68.1,254.415,217.648c81.016,150.8,147.054,438.626,266.819,553.413C904.315,1798.86,1079.034,1741.907,1217.991,1642.267Z" transform="matrix(-0.391, -0.921, 0.921, -0.391, -741.829, 1190.533)" fill="#000057"/>
    </g>
  </g>
</svg>
