<svg id="Laag_1" data-name="Laag 1" xmlns="http://www.w3.org/2000/svg" viewBox="0 0 250 250"><defs><style>.cls-1{fill:#fff;}.cls-2{fill:#000057;}</style></defs><rect class="cls-1" width="250" height="250"/><path class="cls-2" d="M176.89,219.5H135a5,5,0,0,1,0-10h41.89a5.11,5.11,0,0,0,5.11-5.11V44.6a5.11,5.11,0,0,0-5.11-5.1H77.11A5.11,5.11,0,0,0,72,44.6V204.39a5.11,5.11,0,0,0,5.11,5.11H101a5,5,0,0,1,0,10H77.11A15.13,15.13,0,0,1,62,204.39V44.6A15.12,15.12,0,0,1,77.11,29.5h99.78A15.12,15.12,0,0,1,192,44.6V204.39A15.13,15.13,0,0,1,176.89,219.5Z"/><rect class="cls-1" x="31" y="86.5" width="72" height="72" rx="9.63"/><path class="cls-2" d="M93,96.5v52H41v-52H93m.37-10H40.63A9.63,9.63,0,0,0,31,96.13v52.74a9.63,9.63,0,0,0,9.63,9.63H93.37a9.63,9.63,0,0,0,9.63-9.63V96.13a9.63,9.63,0,0,0-9.63-9.63Z"/><polyline class="cls-1" points="67 139.07 67 108.33 81.5 108 53.5 108"/><path class="cls-2" d="M67,144.07a5,5,0,0,1-5-5V113H53.5a5,5,0,0,1,0-10h28a5,5,0,0,1,.11,10l-9.61.22v25.85A5,5,0,0,1,67,144.07Z"/><path class="cls-2" d="M209,70.5v40H137v-40h72m.44-10H136.56A9.56,9.56,0,0,0,127,70.06v40.88a9.56,9.56,0,0,0,9.56,9.56h72.88a9.56,9.56,0,0,0,9.56-9.56V70.06a9.56,9.56,0,0,0-9.56-9.56Z"/><rect class="cls-1" x="149" y="151.5" width="58" height="36" rx="8.88"/><path class="cls-2" d="M197,161.5v16H159v-16h38m1.12-10H157.88a8.88,8.88,0,0,0-8.88,8.88v18.24a8.89,8.89,0,0,0,8.88,8.88h40.24a8.89,8.89,0,0,0,8.88-8.88V160.38a8.88,8.88,0,0,0-8.88-8.88Z"/><path class="cls-2" d="M182,116.5a5,5,0,0,1-3.33-1.27l-28.56-25.5a1.19,1.19,0,0,0-.8-.2,1.13,1.13,0,0,0-.77.43L136.4,105.12a5,5,0,0,1-7.8-6.24l12.13-15.17A11.16,11.16,0,0,1,156.46,82l.18.15,28.69,25.61A5,5,0,0,1,182,116.5Z"/><circle class="cls-1" cx="189" cy="87.5" r="9"/><path class="cls-2" d="M189,101.5a14,14,0,1,1,14-14A14,14,0,0,1,189,101.5Zm0-18a4,4,0,1,0,4,4A4,4,0,0,0,189,83.5Z"/><circle class="cls-2" cx="118" cy="214.5" r="6"/><path class="cls-2" d="M220.79,54.35l-2.49-1.1a1.21,1.21,0,0,1-.55-1.74l2.52-4.21a1.22,1.22,0,0,1,1.54-.49l1.37.61a1.21,1.21,0,0,1,.68,1.46l-1.41,4.7A1.23,1.23,0,0,1,220.79,54.35Z"/><path class="cls-2" d="M229.27,35.14,226.78,34a1.21,1.21,0,0,0-1.65.76l-1.41,4.7a1.2,1.2,0,0,0,.67,1.46l1.38.61a1.21,1.21,0,0,0,1.53-.49l2.53-4.21A1.21,1.21,0,0,0,229.27,35.14Z"/><path class="cls-2" d="M233.94,47.19l-1.1,2.49a1.21,1.21,0,0,1-1.74.55l-4.21-2.53a1.21,1.21,0,0,1-.48-1.53l.6-1.38a1.22,1.22,0,0,1,1.47-.67l4.7,1.41A1.22,1.22,0,0,1,233.94,47.19Z"/><path class="cls-2" d="M214.73,38.7l-1.1,2.5a1.22,1.22,0,0,0,.76,1.65l4.71,1.41a1.21,1.21,0,0,0,1.46-.67l.61-1.38a1.2,1.2,0,0,0-.49-1.53l-4.21-2.53A1.22,1.22,0,0,0,214.73,38.7Z"/><path class="cls-2" d="M20.46,172.23,20.22,170a1,1,0,0,1,1-1.1l4,.06a1,1,0,0,1,1,.87l.13,1.21a1,1,0,0,1-.75,1.07l-3.86.93A1,1,0,0,1,20.46,172.23Z"/><path class="cls-2" d="M37.36,170.34l-.25-2.19a1,1,0,0,0-1.21-.85l-3.86.93a1,1,0,0,0-.75,1.07l.14,1.21a1,1,0,0,0,1,.87l4,.06A1,1,0,0,0,37.36,170.34Z"/><path class="cls-2" d="M30.83,178.52l-2.2.24a1,1,0,0,1-1.09-1l.05-4a1,1,0,0,1,.88-1l1.21-.14a1,1,0,0,1,1.07.75l.92,3.87A1,1,0,0,1,30.83,178.52Z"/><path class="cls-2" d="M28.94,161.62l-2.19.25a1,1,0,0,0-.85,1.2l.93,3.87a1,1,0,0,0,1.06.75l1.22-.14a1,1,0,0,0,.87-1l.05-4A1,1,0,0,0,28.94,161.62Z"/><path class="cls-2" d="M207.09,33.74l-1.54-.25a.7.7,0,0,1-.55-.89l.79-2.69a.71.71,0,0,1,.78-.49l.85.14a.7.7,0,0,1,.58.71l-.11,2.81A.69.69,0,0,1,207.09,33.74Z"/><path class="cls-2" d="M209,21.89l-1.53-.25a.71.71,0,0,0-.81.66l-.1,2.81a.68.68,0,0,0,.58.71L208,26a.7.7,0,0,0,.77-.49l.8-2.69A.7.7,0,0,0,209,21.89Z"/><path class="cls-2" d="M213.33,27.89l-.25,1.54a.69.69,0,0,1-.88.55l-2.69-.79a.69.69,0,0,1-.49-.78l.14-.85a.69.69,0,0,1,.71-.58l2.8.1A.7.7,0,0,1,213.33,27.89Z"/><path class="cls-2" d="M201.49,26l-.25,1.54a.7.7,0,0,0,.66.81l2.8.1a.69.69,0,0,0,.72-.58l.13-.85a.69.69,0,0,0-.49-.78l-2.69-.79A.69.69,0,0,0,201.49,26Z"/></svg>