<svg id="Laag_1" data-name="Laag 1" xmlns="http://www.w3.org/2000/svg" viewBox="0 0 250 250"><defs><style>.cls-1{fill:#fff;}.cls-2{fill:#6c0123;}</style></defs><rect class="cls-1" width="250" height="250"/><path class="cls-2" d="M200.25,138.68l-2.69.42a1.22,1.22,0,0,1-1.41-1.16L196,133a1.22,1.22,0,0,1,1-1.24l1.49-.23a1.2,1.2,0,0,1,1.35.86l1.37,4.72A1.23,1.23,0,0,1,200.25,138.68Z" transform="translate(-0.26 -0.02)"/><path class="cls-2" d="M197,117.93l-2.69.43a1.22,1.22,0,0,0-1,1.54l1.36,4.71a1.23,1.23,0,0,0,1.36.87l1.49-.24a1.2,1.2,0,0,0,1-1.24l-.15-4.91A1.23,1.23,0,0,0,197,117.93Z" transform="translate(-0.26 -0.02)"/><path class="cls-2" d="M207.42,125.53l.43,2.69a1.22,1.22,0,0,1-1.16,1.41l-4.91.16a1.21,1.21,0,0,1-1.24-1l-.24-1.49a1.22,1.22,0,0,1,.87-1.35l4.72-1.37A1.21,1.21,0,0,1,207.42,125.53Z" transform="translate(-0.26 -0.02)"/><path class="cls-2" d="M186.68,128.81l.43,2.69a1.21,1.21,0,0,0,1.53,1l4.72-1.36a1.23,1.23,0,0,0,.87-1.36l-.24-1.49a1.22,1.22,0,0,0-1.24-1l-4.91.15A1.23,1.23,0,0,0,186.68,128.81Z" transform="translate(-0.26 -0.02)"/><path class="cls-2" d="M75.8,36.32l-.49,2.15a1,1,0,0,1-1.3.71l-3.73-1.35a1,1,0,0,1-.63-1.15l.27-1.19A1,1,0,0,1,71,34.73l4,.4A1,1,0,0,1,75.8,36.32Z" transform="translate(-0.26 -0.02)"/><path class="cls-2" d="M59.22,32.56l-.49,2.15a1,1,0,0,0,.86,1.2l4,.39a1,1,0,0,0,1.06-.76l.27-1.19a1,1,0,0,0-.63-1.14l-3.74-1.36A1,1,0,0,0,59.22,32.56Z" transform="translate(-0.26 -0.02)"/><path class="cls-2" d="M68.07,27l2.15.49a1,1,0,0,1,.71,1.3L69.57,32.5a1,1,0,0,1-1.14.63l-1.19-.27a1,1,0,0,1-.76-1.06l.39-3.95A1,1,0,0,1,68.07,27Z" transform="translate(-0.26 -0.02)"/><path class="cls-2" d="M64.31,43.56l2.15.49a1,1,0,0,0,1.2-.86l.39-4a1,1,0,0,0-.76-1.06L66.1,37.9a1,1,0,0,0-1.15.63L63.6,42.27A1,1,0,0,0,64.31,43.56Z" transform="translate(-0.26 -0.02)"/><path class="cls-2" d="M218.69,144.54l-1.06,1.13a.7.7,0,0,1-1,0l-1.8-2.16a.69.69,0,0,1,0-.91l.58-.63a.69.69,0,0,1,.92-.09l2.27,1.64A.7.7,0,0,1,218.69,144.54Z" transform="translate(-0.26 -0.02)"/><path class="cls-2" d="M209.9,136.36l-1.06,1.14a.7.7,0,0,0,.1,1l2.28,1.65a.7.7,0,0,0,.91-.09l.59-.63a.7.7,0,0,0,0-.92l-1.81-2.15A.69.69,0,0,0,209.9,136.36Z" transform="translate(-0.26 -0.02)"/><path class="cls-2" d="M217.28,136.09l1.14,1.07a.68.68,0,0,1,0,1l-2.15,1.8a.7.7,0,0,1-.92,0l-.63-.58a.71.71,0,0,1-.09-.92l1.65-2.27A.69.69,0,0,1,217.28,136.09Z" transform="translate(-0.26 -0.02)"/><path class="cls-2" d="M209.11,144.88l1.14,1.06a.69.69,0,0,0,1-.1l1.64-2.28a.68.68,0,0,0-.09-.91l-.62-.59a.69.69,0,0,0-.92,0l-2.16,1.8A.69.69,0,0,0,209.11,144.88Z" transform="translate(-0.26 -0.02)"/><path class="cls-2" d="M160.5,210a39,39,0,1,1,39-39A39.05,39.05,0,0,1,160.5,210Zm0-70a31,31,0,1,0,31,31A31,31,0,0,0,160.5,140Z" transform="translate(-0.26 -0.02)"/><path class="cls-2" d="M105.5,118a26,26,0,0,1-26-26V82.73a10.21,10.21,0,0,1-6.64-4.56C70.5,74.07,70.5,69.25,70.5,65c0-4.88,2.45-13.24,9-14.88,1.12-.28,2.19-.48,3.23-.68,2.73-.51,5.09-.95,7.34-2.64.84-.63,1.61-1.29,2.36-1.92,2.69-2.29,5.74-4.88,11-4.88h12c5.67,0,10.31,2.75,13.43,7.94,3.23,5.39,6.57,11,6.57,17.06,0,3.9-1.7,6.92-2.94,9.12a12.9,12.9,0,0,0-1.06,2.13V92A26,26,0,0,1,105.5,118Zm-22-42.79a4,4,0,0,1,2.79,1.13,4,4,0,0,1,1.21,2.87V92a18,18,0,0,0,36,0V76.17c0-2.26,1.06-4.15,2.09-6s1.91-3.39,1.91-5.2c0-3.89-2.64-8.29-5.43-12.94-1.66-2.77-3.75-4.06-6.57-4.06h-12c-2.27,0-3.37.86-5.86,3-.8.68-1.71,1.44-2.74,2.22-3.75,2.81-7.42,3.5-10.66,4.11-1,.18-1.89.35-2.77.57-1.3.33-3,3.84-3,7.12,0,3.56,0,6.93,1.29,9.18.33.56,2.36,1.07,3.6,1Z" transform="translate(-0.26 -0.02)"/><path class="cls-2" d="M127.06,185.37H81.5a4,4,0,0,1,0-8h45.56a4,4,0,0,1,0,8Z" transform="translate(-0.26 -0.02)"/><path class="cls-2" d="M81.5,185.37a30.61,30.61,0,0,1-31-30.87,31.66,31.66,0,0,1,.66-6.45A4,4,0,1,1,59,149.68a24.25,24.25,0,0,0-.49,4.82c0,13,9.89,22.87,23,22.87a4,4,0,0,1,0,8Z" transform="translate(-0.26 -0.02)"/><path class="cls-2" d="M55.07,152.86a4.09,4.09,0,0,1-1.69-.37,4,4,0,0,1-1.93-5.32A31.64,31.64,0,0,1,80,129a4,4,0,0,1,0,8,23.59,23.59,0,0,0-21.3,13.56A4,4,0,0,1,55.07,152.86Z" transform="translate(-0.26 -0.02)"/><path class="cls-2" d="M80,137a4,4,0,0,1,0-8,12.52,12.52,0,0,0,12.5-12.5,12.79,12.79,0,0,0-.52-3.6,4,4,0,1,1,7.66-2.3A20.52,20.52,0,0,1,80,137Z" transform="translate(-0.26 -0.02)"/><path class="cls-2" d="M132,137a20.51,20.51,0,0,1-19.38-27.2,4,4,0,1,1,7.56,2.61A12.52,12.52,0,0,0,132,129a4,4,0,0,1,0,8Z" transform="translate(-0.26 -0.02)"/><path class="cls-2" d="M160.5,140a94.3,94.3,0,0,1-13.65-1.45A103.65,103.65,0,0,0,132,137a4,4,0,0,1,0-8,108.5,108.5,0,0,1,16.05,1.64A89.73,89.73,0,0,0,160.5,132a4,4,0,0,1,0,8Z" transform="translate(-0.26 -0.02)"/><path class="cls-2" d="M83.5,83.23a4,4,0,0,1-4-4,12.19,12.19,0,0,1,3.17-8,11.44,11.44,0,0,0,1-2.13c.9-2.4,2.14-5.68,5.62-6.83,3.9-1.3,6.85-.28,9.46.63l1.06.37c1.48.49,3.66,1.49,6.19,2.65A72.16,72.16,0,0,0,114,69.22l2,.54c2.81.76,9.38,2.53,11.25,2.42a4,4,0,0,1,.46,8c-2.92.18-8-1.12-13.79-2.69L112,77a70.25,70.25,0,0,1-9.37-3.83c-2.12-1-4.32-2-5.38-2.34-.41-.13-.8-.27-1.17-.4-2.1-.73-2.92-1-4-.68a14.83,14.83,0,0,0-.94,2.16,13.57,13.57,0,0,1-2.77,5,4.25,4.25,0,0,0-.83,2.42A4,4,0,0,1,83.5,83.23Z" transform="translate(-0.26 -0.02)"/><path class="cls-2" d="M160.92,192.5a4,4,0,0,1-2.83-1.17L141.9,175.14a4,4,0,0,1,5.66-5.66l13.36,13.36,15.6-15.6a4,4,0,1,1,5.66,5.66l-18.43,18.43A4,4,0,0,1,160.92,192.5Z" transform="translate(-0.26 -0.02)"/><path class="cls-2" d="M144.73,176.31a4,4,0,0,1-3.43-1.94,11.12,11.12,0,0,1-1.34-6.15,15.23,15.23,0,0,1,24.11-12.36,4,4,0,0,1-4.67,6.49A7.23,7.23,0,0,0,148,168.22a5.3,5.3,0,0,0,.2,2,4,4,0,0,1-3.43,6.05Z" transform="translate(-0.26 -0.02)"/><path class="cls-2" d="M179.35,174.07a4.87,4.87,0,0,1-.65,0,4,4,0,0,1-3.3-4.6,6.86,6.86,0,0,0,.1-1.2,7.22,7.22,0,0,0-11.43-5.87,4,4,0,1,1-4.67-6.49,15.22,15.22,0,0,1,24.1,12.36,14.89,14.89,0,0,1-.21,2.5A4,4,0,0,1,179.35,174.07Z" transform="translate(-0.26 -0.02)"/></svg>