<?xml version="1.0" encoding="utf-8"?>
<!-- Generator: Adobe Illustrator 25.3.0, SVG Export Plug-In . SVG Version: 6.00 Build 0)  -->
<svg version="1.1" id="Laag_1" xmlns="http://www.w3.org/2000/svg" xmlns:xlink="http://www.w3.org/1999/xlink" x="0px" y="0px"
	 viewBox="0 0 2239.1 1996" style="enable-background:new 0 0 2239.1 1996;" xml:space="preserve">
<style type="text/css">
	.st0{fill:#000057;fill-opacity:0;}
	.st1{fill:#D8DEE8;}
	.st2{fill:#000070;}
	.st3{opacity:0.8;}
	.st4{fill:#FFFFFF;}
	.st5{fill:#000057;}
	.st6{fill:url(#SVGID_1_);}
	.st7{fill:#0E00AA;}
	.st8{opacity:0.3;}
	.st9{fill:#213F92;}
	.st10{fill:url(#SVGID_2_);}
	.st11{fill:#000464;}
	.st12{fill:#284596;}
	.st13{fill:url(#SVGID_3_);}
	.st14{fill:#1D3D91;}
	.st15{fill:url(#SVGID_4_);}
	.st16{fill:#BFC8D6;}
	.st17{opacity:0.48;fill:#FFFFFF;enable-background:new    ;}
	.st18{fill:url(#SVGID_5_);}
	.st19{opacity:0.3;fill:#FFFFFF;enable-background:new    ;}
	.st20{opacity:0.9;}
	.st21{fill:#DFE6FF;}
	.st22{fill:url(#SVGID_6_);}
	.st23{fill:url(#SVGID_7_);}
	.st24{fill:url(#SVGID_8_);}
	.st25{fill:url(#SVGID_9_);}
	.st26{fill:url(#SVGID_10_);}
	.st27{fill:url(#SVGID_11_);}
	.st28{fill:url(#SVGID_12_);}
	.st29{fill:url(#SVGID_13_);}
	.st30{fill:url(#SVGID_14_);}
	.st31{fill:url(#SVGID_15_);}
	.st32{fill:url(#SVGID_16_);}
	.st33{opacity:0.3;fill:url(#SVGID_17_);enable-background:new    ;}
	.st34{fill:url(#SVGID_18_);}
	.st35{fill:url(#SVGID_19_);}
	.st36{fill:url(#SVGID_20_);}
	.st37{fill:url(#SVGID_21_);}
	.st38{fill:url(#SVGID_22_);}
	.st39{fill:url(#SVGID_23_);}
</style>
<g>
	<g id="Laag_1_1_">
		<path class="st0" d="M1180.7,0.5c525.6-15.5,980.8,365.8,1049.6,866.2c75.2,547.1-338.7,1039.4-848,1118.2
			C748.8,2082.9,134.4,1515.6,189.5,900.2C231.1,436.5,646.4,16.2,1180.7,0.5z"/>
		<path class="st1" d="M433.1,614.2l44.7-5c1.9-19.1,5.5-38,10.8-56.5l-40.3-17.3c-10.2-4.2-15.1-15.9-10.9-26.1
			c0.2-0.5,0.4-0.9,0.6-1.4l32.2-65.1c5.4-10.4,17.9-14.9,28.6-10.2l39.7,17.3c11.1-15.4,23.5-29.8,37.1-43l-24.7-33.8
			c-6.4-8.7-4.5-21,4.3-27.4c0.3-0.2,0.6-0.4,0.9-0.6l59.1-39.6c9.4-6.3,22-4.1,28.8,4.9l24.4,33.2c16.9-7.7,34.5-14,52.4-18.7
			l-4-40c-1.1-10.8,7.1-20.2,18.2-21.1l69-5.5c10.9-0.9,20.7,7.1,21.9,17.7l4.2,39.1c18.1,1.6,36.1,4.6,53.7,9.3l16-35.4
			c4.3-9.6,15.9-13.7,25.8-9.2l61.5,28.2c9.8,4.5,14.3,15.9,10.1,25.5l-15.3,35c15,10,29.1,21.4,42.1,33.8l30.6-22.2
			c8.4-6.1,20.4-4.1,26.8,4.5l39.8,54c6.4,8.7,4.8,20.7-3.6,27l-30.2,22.6c8.1,16.2,14.9,33.1,20.2,50.4l37.5-4.2
			c10.4-1.2,20,6.6,21.3,17.3l8.7,67.3c1.4,10.8-6,20.6-16.4,21.9l-37.4,4.6c-0.8,18.5-3.3,36.8-7.3,54.9l35.2,15.3
			c9.8,4.3,14.5,16,10.4,26.3l-25.7,64.6c-4.1,10.4-15.6,15.4-25.6,11.1l-35.7-15.3c-9.9,16.1-21.2,31.4-33.8,45.5l23.5,32
			c6.6,9.2,4.9,22-3.9,29.2l-55.4,44.9c-8.3,7-20.6,5.9-27.6-2.4c-0.3-0.3-0.6-0.7-0.8-1l-24-32.7c-16.9,9.2-34.6,17-52.8,23.1
			l4.5,41.8c1.3,11.7-6.9,22.6-18.3,24.4l-71.8,11.3c-10.9,1.8-21.2-5.6-23-16.5c-0.1-0.5-0.2-1.1-0.2-1.6l-4.3-42.5
			c-19.4-0.6-38.7-2.9-57.7-7l-17.7,40.5c-4.9,11.2-17.7,16.8-28.5,12.4l-68-27.5c-10.9-4.4-15.7-17.2-10.6-28.4l18.4-40.9
			c-16.3-10.5-31.6-22.4-45.7-35.8l-36.3,27.1c-10,7.5-23.7,5.8-30.7-3.7l-43.5-59.4c-7-9.5-4.4-23.1,5.7-30.5l37-26.9
			c-8.3-17.4-15.1-35.6-20.1-54.2l-44.9,5.5c-12.2,1.5-22.9-6.8-23.8-18.6l-5.8-73.2C411.9,626,421,615.5,433.1,614.2z M722.7,822.4
			c106.5,44.5,228.6-7.6,272.8-113.3c43.2-103.2-3.4-221.2-104.3-266.2c-102.2-45.6-224.8-0.7-273.6,103
			C567.6,652.2,614.7,777.3,722.7,822.4L722.7,822.4z"/>
		<path class="st2" d="M823.3,1718.5c-81-10.4-183.7-37.8-225-114.8c-9.8-18.3-19.7-54,5.1-67.4c22.6-12.3,51.9,0.7,68.7,16.7
			c12.4,11.7,22,37.9,35.9,46.2c20.3,12.1,31.3-21,30.9-34.6c-1-30.5-38.5-43-63.5-49.7c-41.4-11-89.6-20.4-87-67.1
			s48.1-74.7,83.1-54.3c28.8,16.8,24.8,52.7,44.5,74.3c17.5,19.1,23.6-11.9,22.4-27.2c-2.5-33.1-31.6-57-53-79.2
			c-24.2-25.1-50.9-75.5-25.1-108.7c14.8-19.1,52.5-23.5,74.8-20.3c109.1,15.8,36.8,156.9,56.6,172.7s38.6-11.8,38.6-53.8
			s6.4-72.8,50.1-59.4s52.1,122.9,2.1,165s3.1,88,16.5,57.8c9.7-21.8,18.2-78.8,46.2-85.1c46.6-10.4,45.9,84.8,32.5,107
			c-18.8,31.1-61.3,37.8-85.1,64.6c-6.9,7.8-22.5,27.1-16.4,38.4c8.4,15.9,32-1.1,40.7-8.5c19.5-16.5,46.4-72.8,73.8-35.4
			C1024.5,1642.1,968,1710.4,823.3,1718.5z"/>
		<g class="st3">
			<path class="st4" d="M811.6,1709.3c1.9,0,3.5-1,3.5-2.9c0-1.7,2.3-167.4-70.2-364.9c-0.7-1.8-2.7-2.6-4.5-2c0,0,0,0,0,0
				c-1.8,0.7-2.7,2.7-2.1,4.6c72.1,196.3,69.8,360.5,69.8,362.1C808.1,1708.2,809.6,1709.3,811.6,1709.3L811.6,1709.3z"/>
		</g>
		<path class="st5" d="M781.8,1647.5c13.1-11.2,41,6.3,52.6,12.9c6.7,3.9,15.9,9.8,24,6.3c8.5-3.6,7.9-12.5,2.8-18.8
			c-9.2-11.3-26.8-14.4-39.6-19.9c-13.8-5.9-26.4-14-33.2-27.9c-5.4-11.1-6.7-27.4-0.5-38.3c16.9-30.2,41.4-6.6,55.1,11.4
			c6.7,8.7,21.6,23.8,32.9,13.5c12-11,1.7-30.5-7.6-39.1c-12.2-11.3-27-19.1-40.2-28.9c-12-8.8-24.3-21.5-16.3-37.1
			c6.2-12.1,21.7-18.8,34.9-17.8c30.6,2.4,35.4,47,55.5,64.2c7.1,6.1,23.3,10.9,31.8,4.9c8.7-6.1,3-20-0.1-27.5
			c-9.2-22.4-75.4-97.7-20.6-107.2c13.8-2.4,32.8,2,43.7,10.8c20.5,16.6,31.3,49.4,36.7,74.2c8.5,40.1,8,81.7-1.5,121.6
			c-20.9,86.1-70.1,113.7-70.1,113.7c-21.3,7-47.9,10.4-69.9,5.8c-25.9-5.5-56.9-24.7-69.7-48.6
			C778.3,1668,773.7,1654.4,781.8,1647.5z"/>
		
			<linearGradient id="SVGID_1_" gradientUnits="userSpaceOnUse" x1="-11202.2061" y1="4463.3594" x2="-11010.2354" y2="4164.7393" gradientTransform="matrix(0.8889 -0.4543 -0.4543 -0.8889 13126.3613 -526.4118)">
			<stop  offset="0" style="stop-color:#FFFFFF"/>
			<stop  offset="1" style="stop-color:#F4F7FA"/>
		</linearGradient>
		<polygon class="st6" points="970.1,250.9 1323.1,149 1599.8,1107.4 1246.7,1209.4 		"/>
		
			<rect x="1037.6" y="240.2" transform="matrix(0.9608 -0.2773 0.2773 0.9608 -43.7386 338.8958)" class="st7" width="277.2" height="167.8"/>
		
			<rect x="1092.1" y="428.9" transform="matrix(0.9608 -0.2773 0.2773 0.9608 -93.9372 361.4023)" class="st7" width="277.2" height="167.8"/>
		
			<rect x="1147.9" y="613.2" transform="matrix(0.96 -0.28 0.28 0.96 -143.7444 388.1063)" class="st7" width="277.2" height="167.8"/>
		
			<rect x="1201" y="806.3" transform="matrix(0.9608 -0.2773 0.2773 0.9608 -194.3367 406.4186)" class="st7" width="277.2" height="167.8"/>
		<g class="st8">
			<path class="st9" d="M1323.2,148.9l-187.7,54.2c30.5,26,58.9,59.5,76.8,102.6c34.1,82,5.9,140.4,13.5,255.3
				c7.9,120,46.3,172.5,83.3,281c27,79.2,53.5,188.8,57.8,332.6l233-67.3L1323.2,148.9z"/>
		</g>
		
			<linearGradient id="SVGID_2_" gradientUnits="userSpaceOnUse" x1="-10701.1445" y1="4684.7642" x2="-10984.5146" y2="4171.3442" gradientTransform="matrix(0.8887 -0.4585 -0.4585 -0.8887 13135.5361 -528.5128)">
			<stop  offset="0" style="stop-color:#FFFFFF"/>
			<stop  offset="1" style="stop-color:#F4F7FA"/>
		</linearGradient>
		<polygon class="st10" points="1395.1,159.3 1753.5,240.3 1533.5,1213.4 1175.1,1132.3 		"/>
		
			<rect x="1456.5" y="184.2" transform="matrix(0.2205 -0.9754 0.9754 0.2205 885.7867 1754.0968)" class="st11" width="167.8" height="277.2"/>
		
			<rect x="1413.1" y="375.8" transform="matrix(0.2205 -0.9754 0.9754 0.2205 665.1458 1861.1768)" class="st11" width="167.8" height="277.2"/>
		
			<rect x="1369.8" y="567.4" transform="matrix(0.2205 -0.9754 0.9754 0.2205 444.495 1968.2644)" class="st11" width="167.8" height="277.2"/>
		
			<rect x="1326.5" y="759" transform="matrix(0.2205 -0.9754 0.9754 0.2205 223.8595 2075.356)" class="st11" width="167.8" height="277.2"/>
		<g class="st8">
			<path class="st12" d="M1753.5,240.4L1517.4,187c26.8,59.5,28.4,106,23.4,139.8c-13.9,95.2-84.1,119.3-120.7,234.6
				c-34.3,108-1.6,177.9,3.4,265.7c4.7,83.6-15,195.8-111.2,336.3l221.1,50L1753.5,240.4z"/>
		</g>
		
			<linearGradient id="SVGID_3_" gradientUnits="userSpaceOnUse" x1="-10835.3125" y1="4240.7803" x2="-10746.9424" y2="3914.7205" gradientTransform="matrix(0.8887 -0.4585 -0.4585 -0.8887 13135.6514 -527.6068)">
			<stop  offset="0" style="stop-color:#FFFFFF"/>
			<stop  offset="1" style="stop-color:#F4F7FA"/>
		</linearGradient>
		<polygon class="st13" points="1845.8,275.1 2120.7,519.1 1458.5,1265.2 1183.6,1021.2 		"/>
		
			<rect x="1810.2" y="349.9" transform="matrix(0.6638 -0.7479 0.7479 0.6638 271.4921 1580.8986)" class="st5" width="167.8" height="277.2"/>
		
			<rect x="1679.9" y="496.8" transform="matrix(0.6638 -0.7479 0.7479 0.6638 117.7869 1532.7761)" class="st5" width="167.8" height="277.2"/>
		
			<rect x="1549.5" y="643.7" transform="matrix(0.6638 -0.7479 0.7479 0.6638 -35.9244 1484.6482)" class="st5" width="167.8" height="277.2"/>
		
			<rect x="1419.1" y="790.6" transform="matrix(0.6638 -0.7479 0.7479 0.6638 -189.6433 1436.5238)" class="st5" width="167.8" height="277.2"/>
		<g class="st8">
			<path class="st14" d="M2120.7,519l-176.4-156.5c3.1,90-21.6,143.6-46,176.7c-57.2,77.3-130.5,65.5-217.2,149.7
				c-81.3,79-85.4,156-122.5,235.8c-32.9,70.7-96.3,153.3-227.1,227.7l127.1,112.8L2120.7,519z"/>
		</g>
		
			<linearGradient id="SVGID_4_" gradientUnits="userSpaceOnUse" x1="-10431.7754" y1="1626.704" x2="-10353.6152" y2="1626.704" gradientTransform="matrix(0.9608 -0.2773 -0.2773 -0.9608 11808.3965 -233.0919)">
			<stop  offset="0" style="stop-color:#E38DDD"/>
			<stop  offset="1" style="stop-color:#9571F6"/>
		</linearGradient>
		<circle class="st15" cx="1371.8" cy="1086.2" r="39.1"/>
		<path class="st16" d="M197.5,1736.7l1926.9-16.7v49.3c0,13.4-8.4,24.8-19.8,26.8l-544.9,97c-6.4,1.2-13,1.5-19.6,0.9L218.4,1783.4
			c-11.8-1-20.9-12.4-20.9-26.1V1736.7z"/>
		<path class="st16" d="M906.6,1657.7l1224.7,90.2c21.9,1.6,39.7-15.5,39.7-38.3v-912c0-22.8-17.8-41.2-39.7-41.2l-43.3,25
			l-1181.4-25c-18.1,0-32.7,16.7-32.7,37.3V1618C873.9,1638.6,888.5,1656.4,906.6,1657.7z"/>
		<path class="st4" d="M887.1,1657.7l1224.7,90.2c21.9,1.6,39.7-15.5,39.7-38.3v-912c0-22.8-17.8-41.2-39.7-41.2H887.1
			c-18,0-32.7,16.7-32.7,37.3V1618C854.4,1638.6,869,1656.4,887.1,1657.7z"/>
		<path class="st1" d="M925.2,1599.6l1140.7,78.3c17.8,1.2,32.3-12.8,32.3-31.4V848c0-18.6-14.5-33.7-32.3-33.8l-1140.7-4.9
			c-14.9-0.1-26.9,13.6-26.9,30.5v727.3C898.3,1584,910.3,1598.6,925.2,1599.6z"/>
		<path class="st4" d="M1456.2,781.3c0,8.5,6.3,15.4,14.1,15.4s14.1-6.8,14.1-15.3s-6.3-15.4-14.1-15.4S1456.2,772.8,1456.2,781.3z"
			/>
		<path class="st17" d="M2111.8,1747.9l-1218.5-89.7l-6.2-0.4c-8.3-0.6-15.8-4.7-21.6-10.9c87.7-4.8,142.1-35.9,177.3-68.1
			c70.6-64.6,58.3-128.2,134.4-170.7c94.9-53,169.5,14.2,241.5-52.1c43.7-40.1,22.2-70.1,75.9-130c59.5-66.4,98.2-44.1,158-103.9
			c75.6-75.6,37.8-134.4,102.9-188.7c79-65.8,164.2-4.9,239.4-68.1c32.4-27.2,50.2-66.8,59.5-108.9h57.2c21.9,0,39.7,18.5,39.7,41.2
			v912C2151.5,1732.3,2133.7,1749.5,2111.8,1747.9z"/>
		
			<linearGradient id="SVGID_5_" gradientUnits="userSpaceOnUse" x1="8906.5303" y1="54.2866" x2="10833.4102" y2="54.2866" gradientTransform="matrix(-1 0 0 -1 11030.8896 1805.2)">
			<stop  offset="0.49" style="stop-color:#EBEFF2"/>
			<stop  offset="1" style="stop-color:#FFFFFF"/>
		</linearGradient>
		<path class="st18" d="M829.4,1652.7l1295,94.9l-564.6,100.6c-6.4,1.2-13,1.5-19.6,0.9L197.5,1736.7l611.3-83.3
			C815.6,1652.4,822.5,1652.2,829.4,1652.7z"/>
		<polygon class="st1" points="1935.4,1748.4 857.3,1668.2 523.6,1713.4 1592.5,1799.1 		"/>
		<path class="st4" d="M1564.5,1376.3V1107c0-17.3-14.6-28.1-27.3-20.2l-225.5,141.6c-14.1,8.8-14.1,33.8,0,41.8l225.5,127.9
			C1549.9,1405.3,1564.5,1393.6,1564.5,1376.3z"/>
		<path class="st11" d="M822.5,1511.5c0,27.9,20.7,51.7,46.2,53.2l1117.9,63.9c30.4,1.7,55.1-21.6,55.1-52.2V676.8
			c0.1-30-24-54.4-54-54.5c-0.4,0-0.7,0-1.1,0L868.8,639.5c-25.6,0.4-46.2,23.3-46.2,51.2V1511.5z"/>
		<path class="st19" d="M852.6,1489.1c0,26.3,19.2,48.8,43.4,50.1l1053.7,58c26.9,1.7,50.1-18.7,51.8-45.5c0.1-1.2,0.1-2.4,0.1-3.6
			V706.3c0-28.4-23.1-51.4-51.5-51.3c-0.2,0-0.4,0-0.6,0L896.3,668.7c-24.2,0.3-43.7,21.9-43.7,48.3V1489.1z"/>
		<path class="st5" d="M822.5,692.8V734l1219.3-9.8v-45.1c0-30.6-26.3-57.2-56.7-56.8L867.5,639.5
			C841.8,639.9,822.5,664.9,822.5,692.8z"/>
		<path class="st4" d="M1956,675.6c-0.1,11.6,9.3,21.1,20.9,21.1c0.1,0,0.3,0,0.4,0c11.8-0.2,21.3-9.8,21.3-21.6
			c0.1-11.6-9.3-21.1-20.9-21.1c-0.2,0-0.3,0-0.5,0C1965.5,654.2,1956,663.8,1956,675.6z"/>
		<path class="st4" d="M1891.5,676.3c-0.1,11.5,9.2,20.9,20.8,21c0.1,0,0.1,0,0.2,0c11.7-0.2,21.1-9.8,21.1-21.5
			c0.1-11.5-9.2-20.9-20.8-21c-0.1,0-0.2,0-0.3,0C1900.8,655.1,1891.5,664.6,1891.5,676.3z"/>
		<path class="st4" d="M1827.7,677.1c-0.1,11.5,9.1,20.8,20.6,20.9c0.1,0,0.2,0,0.3,0c11.7-0.2,21-9.8,20.9-21.4
			c0.1-11.5-9.1-20.8-20.5-20.9c-0.1,0-0.3,0-0.4,0C1836.9,655.9,1827.6,665.4,1827.7,677.1z"/>
		<g class="st20">
			<polygon class="st21" points="1658,1527 1961.6,1542.6 1961.6,780.3 1658,781.5 			"/>
			<polygon class="st21" points="877.7,1000 1632.9,1009.7 1632.9,781.7 877.7,784.7 			"/>
			<polygon class="st21" points="1324.3,1262 1632.9,1271.9 1632.9,1043.9 1324.3,1039.2 			"/>
			<polygon class="st21" points="1324.3,1509.9 1632.9,1525.6 1632.9,1297.6 1324.3,1287.1 			"/>
			<polygon class="st21" points="877.7,1487.2 1289.2,1508.1 1289.2,1038.6 877.7,1032.3 			"/>
		</g>
		<path class="st2" d="M955.3,1326.1l62.4-91.7c0.6-0.9,1.7-1.5,2.8-1.4c1.1,0,2.2,0.6,2.8,1.5l35.3,54l58.9-86.6
			c0.6-0.9,1.7-1.5,2.8-1.5c1.1,0,2.2,0.6,2.8,1.5l85.5,129.2c0.7,1.2,0.8,2.6,0.2,3.9c-0.6,1.2-1.7,2-3,2.1l-117.5-2.4l-59.8-1.2
			l-70.5-1.4c-1.3-0.2-2.4-1-2.9-2.2C954.6,1328.7,954.6,1327.3,955.3,1326.1z"/>
		<path class="st2" d="M1001.8,1176.2c-0.1,15.6,11.7,28.4,26.4,28.6s26.7-12.3,26.8-27.9s-11.8-28.4-26.4-28.6
			S1001.9,1160.7,1001.8,1176.2z"/>
		<path class="st2" d="M1693.1,856c0,15.8,13.6,28.6,29,28.7l173.2,0.6c15.8,0,28.6-12.9,28.6-28.7c0-0.1,0-0.2,0-0.2v-0.2
			c0-16-12.2-29-28-29l-174.1,0.1c-15.7,0.1-28.5,12.8-28.7,28.6L1693.1,856z"/>
		<path class="st2" d="M1341.7,1227.7c-0.1,3.8,2.8,6.9,6.6,7.2l69.3,2.1c3.7,0,6.7-2.9,6.7-6.5c0-0.1,0-0.2,0-0.3l0,0
			c0.1-3.8-2.9-7-6.7-7.2l-69.3-2c-3.6,0-6.6,2.9-6.6,6.5C1341.7,1227.6,1341.7,1227.7,1341.7,1227.7L1341.7,1227.7z"/>
		<path class="st2" d="M1341.7,1476c-0.1,3.8,2.8,7,6.6,7.3l69.3,3.4c3.6,0.1,6.6-2.7,6.7-6.3c0-0.1,0-0.3,0-0.4l0,0
			c0-3.8-2.9-7-6.7-7.3l-69.3-3.3c-3.5-0.1-6.5,2.7-6.6,6.2C1341.7,1475.7,1341.7,1475.8,1341.7,1476L1341.7,1476z"/>
		<path class="st2" d="M985.4,970.8c0,6,4.5,11,10.1,11.1s10.1-4.8,10.1-10.8s-4.5-11-10.1-11.1S985.4,964.8,985.4,970.8z"/>
		<path class="st2" d="M952.8,970.5c0,6,4.5,11,10.1,11s10.1-4.8,10.1-10.8s-4.5-11-10.1-11S952.8,964.4,952.8,970.5z"/>
		<path class="st2" d="M920.5,970.1c0,6,4.5,10.9,10,11s10-4.8,10-10.8s-4.5-11-10-11S920.5,964.1,920.5,970.1z"/>
		<path class="st2" d="M1695.6,930.5c0-6.4,6.3-11.6,12.5-11.5l201.5,1.2c6.5,0.1,11.7,5.3,11.8,11.8v130.8
			c0,6.5-4.7,11.7-11.1,11.6l-202.4-3.5c-6.2-0.1-12.3-5.4-12.3-11.8L1695.6,930.5z"/>
		<path class="st2" d="M1693.1,1193.9c0,15.8,13.6,28.9,29,29.3l173.2,4.9c15.9,0.4,28.6-12.2,28.6-28.2v-0.2
			c0-16-12.2-29.4-28-29.8l-174.1-4.2c-15.5-0.4-28.3,11.9-28.6,27.3c0,0.2,0,0.4,0,0.5L1693.1,1193.9z"/>
		<path class="st2" d="M1695.6,1268.5c0-6.4,6.3-11.4,12.5-11.2l201.5,6.2c6.5,0.3,11.7,5.6,11.8,12.1v130.8
			c0,6.5-4.7,11.5-11.1,11.3l-202.4-8.5c-6.2-0.3-12.3-5.7-12.3-12L1695.6,1268.5z"/>
		<path class="st5" d="M427.9,1258.6c16.7-17.8-29.5-84.7-54.2-114c-21.6-25.6-43.8-51.9-71-48.6c-23.9,2.9-47.2,28.2-48.6,52.3
			C250.2,1213.3,404.1,1283.9,427.9,1258.6z"/>
		
			<linearGradient id="SVGID_6_" gradientUnits="userSpaceOnUse" x1="7723.7993" y1="68.9237" x2="7781.1846" y2="68.9237" gradientTransform="matrix(-1 3.000000e-02 -3.000000e-02 -1 8005.1597 1795.0699)">
			<stop  offset="0" style="stop-color:#000070"/>
			<stop  offset="1" style="stop-color:#000057"/>
		</linearGradient>
		<path class="st22" d="M227.6,1946.1c-3.1,2.6-3.7,8.9-4.1,13.1c-0.2,1.1-0.2,2.3,0,3.4c1.5,4.8,10.8,5.3,25.4,6.8
			c23,2.4,29.9,4.2,31.7,0.7c1.7-3.2-2.4-8.5-2.9-9c-2.5-3.1-5.5-4.3-11.4-6.2c-10.9-3.6-18.2-5.5-20.4-6.1
			C232,1945.1,229.6,1944.4,227.6,1946.1z"/>
		
			<linearGradient id="SVGID_7_" gradientUnits="userSpaceOnUse" x1="10787.3096" y1="-134.5296" x2="10807.9004" y2="-134.5296" gradientTransform="matrix(-1 0 0 -1 11030.8896 1805.2)">
			<stop  offset="0" style="stop-color:#FFC444"/>
			<stop  offset="1" style="stop-color:#F36F56"/>
		</linearGradient>
		<path class="st23" d="M241.3,1925.1l2.3,26.3c-0.7,1.3-8.5,5.1-14.7,1.8l-5.9-25.8L241.3,1925.1z"/>
		
			<linearGradient id="SVGID_8_" gradientUnits="userSpaceOnUse" x1="8024.0801" y1="1886.2145" x2="8085.1387" y2="1886.2145" gradientTransform="matrix(-0.96 0.27 -0.27 -0.96 8701.5703 1579.88)">
			<stop  offset="0" style="stop-color:#000070"/>
			<stop  offset="1" style="stop-color:#000057"/>
		</linearGradient>
		<path class="st24" d="M410.3,1942.7c-3.8,4.1-4.6,11.8-1.4,15.6s8.1,0.9,21.8,1.3c14.7,0.4,18.5,3.9,28.5,1.2
			c4-1.1,11.2-3.8,11-6.7c-0.1-2-3.7-3.1-15.8-7.1c-17.2-5.8-17.1-6.1-20.8-6.7C424.5,1938.8,415.3,1937.2,410.3,1942.7z"/>
		
			<linearGradient id="SVGID_9_" gradientUnits="userSpaceOnUse" x1="10603.7803" y1="-127.7326" x2="10629.21" y2="-127.7326" gradientTransform="matrix(-1 0 0 -1 11030.8896 1805.2)">
			<stop  offset="0" style="stop-color:#FFC444"/>
			<stop  offset="1" style="stop-color:#F36F56"/>
		</linearGradient>
		<path class="st25" d="M419.7,1918.8l7.4,24.5c-0.6,1.3-8,5.7-14.5,2.9l-11-23.8L419.7,1918.8z"/>
		
			<linearGradient id="SVGID_10_" gradientUnits="userSpaceOnUse" x1="-6735.3037" y1="-37.5472" x2="-6898.0137" y2="329.2328" gradientTransform="matrix(1 0 0 -1 7182.29 1805.2)">
			<stop  offset="0" style="stop-color:#000070"/>
			<stop  offset="1" style="stop-color:#000057"/>
		</linearGradient>
		<path class="st26" d="M354.3,1381.8c2.3,183.6,26.7,366.2,72.6,544l-28.2,7.6c-23.9-22.2-54-57.3-68.5-106.7
			c-9-30.7-6-46.5-11.7-84.3c-9.1-60.2-27.5-91.7-46.6-140.2c-17.1-43.6-37.4-107.6-48.2-193L354.3,1381.8z"/>
		
			<linearGradient id="SVGID_11_" gradientUnits="userSpaceOnUse" x1="-7215.915" y1="819.1279" x2="-7378.6147" y2="1185.8978" gradientTransform="matrix(0.99 -0.12 -0.12 -0.99 7603.46 1796.7001)">
			<stop  offset="0" style="stop-color:#000070"/>
			<stop  offset="1" style="stop-color:#000057"/>
		</linearGradient>
		<path class="st27" d="M269.4,1374c-5.8,104.8-10.5,211.5-14.1,320.1c-2.7,81.5-4.7,162-6,241.4l-28.8,3.6
			c-13.2-24.5-23.3-50.6-30.1-77.6c-10.2-41.1-7.9-65.5-12.4-108.2c-5.1-47.8-12.4-58.2-25.4-118.5
			c-26.4-122.4-39.5-183.6-10.1-221.6C152.1,1400.9,182,1369.9,269.4,1374z"/>
		<path class="st5" d="M129.4,1110.6c31.3-8.8,63.4-14.2,95.8-16c57.6-3.3,86.4-4.9,106.8,8.8c47.1,31.7,10.6,104.8,29.9,286
			c2.8,25.9,3.4,51.9,5.4,77.9c3.3,43,4.1,45.3,1.1,49.7c-18.8,27.3-88.7-13.9-191.2,2.4c-57.4,9.1-83.4,30.1-99.1,15
			c-18.3-17.7-2.6-65.1,10.9-106c15.5-46.9,25.1-47.5,33.9-82.8c9.2-36.9,3.6-55.9,2.2-114.2
			C124.2,1191.1,125.6,1150.8,129.4,1110.6z"/>
		<path class="st2" d="M268.8,1450.8c-26.8-2.1-44.2,13.1-67.3,1.2c-31.7-16.2-41.9-66.6-39.9-102.2c3.1-54.2,34-68.4,28.7-103.4
			c-2.9-18.9-16.4-44.1-64.9-69.8c-0.6,21.6-0.5,40-0.2,54.7c1.4,58.2,7,77.2-2.2,114.2c-8.8,35.3-18.4,35.9-33.9,82.8
			c-13.5,40.9-29.2,88.3-10.9,106c15.7,15.1,41.7-5.8,99.1-15c88.3-14,152.4,14.6,180.5,5.3C323.8,1468.6,293,1452.7,268.8,1450.8z"
			/>
		<path class="st5" d="M165.9,1114.4c-19.1-15.7-57.6,2.1-67.9,6.8c-57.3,26.5-108.8,98-96.1,173.6c1.9,11.3,10.8,64.3,55.7,90
			c40.5,23.2,95.2,17.2,139-15.6l18-15.9l17.7-19.1c-13.9-11.6-29.9-20.4-47.2-25.9c-29.1-9.4-50.3,7.5-63.8-5.4
			c-9.3-8.8-9.4-24.5-7-33.9c4.6-19.1,21.5-24.5,35.5-38C182.8,1199,188.9,1133.2,165.9,1114.4z"/>
		
			<linearGradient id="SVGID_12_" gradientUnits="userSpaceOnUse" x1="-6831.5112" y1="338.1795" x2="-6862.5312" y2="426.0894" gradientTransform="matrix(1 0 0 -1 7182.2798 1805.2)">
			<stop  offset="0" style="stop-color:#444B8C"/>
			<stop  offset="1" style="stop-color:#26264F"/>
		</linearGradient>
		<polygon class="st28" points="440.9,1361 184.4,1357.2 252.6,1390.1 441.6,1377.7 		"/>
		
			<linearGradient id="SVGID_13_" gradientUnits="userSpaceOnUse" x1="-6967.0459" y1="465.5392" x2="-6955.6758" y2="386.9491" gradientTransform="matrix(1 0 0 -1 7182.29 1805.2)">
			<stop  offset="0" style="stop-color:#444B8C"/>
			<stop  offset="1" style="stop-color:#26264F"/>
		</linearGradient>
		<path class="st29" d="M175.4,1364L175.4,1364c0,4.8,3,9.1,7.5,10.7l81.9,32.1l0.4-22.3l-80.8-27.4c-3.8-1.1-7.7,1.1-8.8,4.8
			C175.5,1362.7,175.4,1363.3,175.4,1364z"/>
		
			<linearGradient id="SVGID_14_" gradientUnits="userSpaceOnUse" x1="10751.9004" y1="453.2039" x2="10816.2188" y2="453.2039" gradientTransform="matrix(-1 0 0 -1 11030.8896 1805.2)">
			<stop  offset="0" style="stop-color:#FFC444"/>
			<stop  offset="1" style="stop-color:#F36F56"/>
		</linearGradient>
		<path class="st30" d="M214.9,1348.8c-1.6-0.3,7.7-18.8,14.9-16.6s42.7,22.7,46,31.2l3.2,8.5c0,0-15.5,1.2-25.1-2
			S227.7,1351.6,214.9,1348.8z"/>
		
			<linearGradient id="SVGID_15_" gradientUnits="userSpaceOnUse" x1="-6741.6494" y1="458.6534" x2="-6802.1294" y2="544.5435" gradientTransform="matrix(1 0 0 -1 7182.29 1805.2)">
			<stop  offset="0" style="stop-color:#000057"/>
			<stop  offset="1" style="stop-color:#000070"/>
		</linearGradient>
		<path class="st31" d="M272,1228.3L254,1392.9c-0.6,5.7,7.3,14.1,13,13.9l265.2-16.3c4.4-0.2,8-3.4,8.7-7.7l33.3-159
			c1-5.8-9.4-11.8-15.3-11.6L281,1220C276.4,1220.1,272.5,1223.7,272,1228.3z"/>
		
			<linearGradient id="SVGID_16_" gradientUnits="userSpaceOnUse" x1="-6857.6626" y1="316.5113" x2="-6725.2925" y2="585.3913" gradientTransform="matrix(1 0 0 -1 7182.29 1805.2)">
			<stop  offset="0" style="stop-color:#000057"/>
			<stop  offset="1" style="stop-color:#000070"/>
		</linearGradient>
		<path class="st32" d="M278.1,1233.1L260,1397.7c-0.6,5.1,3.1,9.7,8.2,10.3c0.5,0.1,1,0.1,1.5,0l268.5-12.7c4.4-0.2,8-3.4,8.7-7.7
			l27.4-159.7c0.9-5-2.5-9.9-7.6-10.7c-0.6-0.1-1.2-0.2-1.9-0.1l-277.9,7.8C282.4,1224.9,278.6,1228.5,278.1,1233.1z"/>
		
			<linearGradient id="SVGID_17_" gradientUnits="userSpaceOnUse" x1="-6922.3472" y1="489.0897" x2="-6631.5498" y2="489.0897" gradientTransform="matrix(1 0 0 -1 7182.29 1805.2)">
			<stop  offset="0" style="stop-color:#000057"/>
			<stop  offset="1" style="stop-color:#000070"/>
		</linearGradient>
		<path class="st33" d="M435.8,1356.7c-23.5-9.9-15.2-28.9-42.9-52.5c-36.5-31.2-73.8-17.6-86.8-41.8c-4.1-7.5-6-19.2,1.1-38.2
			l-20.1,0.6c-4.6,0.1-8.5,3.7-9,8.3L260,1397.7c-0.6,5.1,3.1,9.7,8.2,10.3c0.5,0.1,1,0.1,1.5,0l268.5-12.7c4.4-0.2,8-3.4,8.7-7.7
			l3.8-22c-9.1-5.2-19-8.9-29.2-11C482.1,1346.6,462.8,1368.1,435.8,1356.7z"/>
		
			<linearGradient id="SVGID_18_" gradientUnits="userSpaceOnUse" x1="10475.6084" y1="420.3283" x2="10518.9854" y2="420.3283" gradientTransform="matrix(-1 0 0 -1 11030.8896 1805.2)">
			<stop  offset="0" style="stop-color:#FFC444"/>
			<stop  offset="1" style="stop-color:#F36F56"/>
		</linearGradient>
		<path class="st34" d="M555.2,1372.2c0.4-1.1-0.2-2.3-1.3-2.7c-0.2-0.1-0.4-0.1-0.6-0.1c-5.7-0.3-18.8-0.4-26.1,4
			c-9.4,5.8-21.6,16.3-11.4,21.7l9.6,5c0.4,0.2,0.9,0.3,1.4,0.2c3.4-0.8,17.8-3.9,19.3-4.7S553.1,1378.7,555.2,1372.2z"/>
		
			<linearGradient id="SVGID_19_" gradientUnits="userSpaceOnUse" x1="10742.3643" y1="725.3927" x2="10857.3809" y2="725.3927" gradientTransform="matrix(-1 0 0 -1 11030.8896 1805.2)">
			<stop  offset="0" style="stop-color:#FFC444"/>
			<stop  offset="1" style="stop-color:#F36F56"/>
		</linearGradient>
		<path class="st35" d="M229.5,1031.7c0.2,13.4-1,26.7-3.6,39.9c-2.1,10.6-3.6,13.4-5.5,15.6c-2.9,3.3-7.2,6.2-31.6,12.2
			c-13.3,3.3-15,3.2-15.3,4.5c-1.4,6.4,34.9,28.4,72.4,23.1c23-3.2,43.8-16.3,42.5-23.2s-24.2-3.2-31-15.7
			c-4.8-8.7,0.6-21.1,6.9-31.3C258.2,1045.4,235.6,1043.2,229.5,1031.7z"/>
		
			<linearGradient id="SVGID_20_" gradientUnits="userSpaceOnUse" x1="11294.0234" y1="2830.3638" x2="11358.123" y2="2830.3638" gradientTransform="matrix(-0.98 0.19 -0.19 -0.98 11901.3105 1655.7001)">
			<stop  offset="0" style="stop-color:#26264F"/>
			<stop  offset="1" style="stop-color:#444B8C"/>
		</linearGradient>
		<path class="st36" d="M270.7,1033.2c4-8.1,1.9-20.5-5.8-27.1c-6.6-5.7-15.1-5-20.1-4.6c-14.7,1.1-31.7,10.7-35.4,25.2
			c-2.2,8.6,9.1,23.3,10.9,26c2.1,3,4.9,3.7,7.8,5.7c4,2.8,10.3,7.3,20.6,14.9c0.2-3.5,0.6-7,1.4-10.4c1-4.4,2.5-8.8,4.6-12.8
			C260.4,1039.5,267,1040.9,270.7,1033.2z"/>
		
			<linearGradient id="SVGID_21_" gradientUnits="userSpaceOnUse" x1="11295.6328" y1="2813.3066" x2="11351.2627" y2="2813.3066" gradientTransform="matrix(-0.98 0.19 -0.19 -0.98 11901.3105 1655.7001)">
			<stop  offset="0" style="stop-color:#FFC444"/>
			<stop  offset="1" style="stop-color:#F36F56"/>
		</linearGradient>
		<path class="st37" d="M235,1067.9c0,0,12.5,13.7,31.1,8.8c16.7-4.4,11.8-42.7-0.6-48.6c-4.1-2-11.5-1.7-17.1,1.1
			c-3.3,1.6-4.2,3.3-9.5,5.9c-5,2.4-6.6,2.1-7.9,3.7c-1.6,2-2.3,6.4,3.1,16.8c-3.9-2.6-8-3.1-10.4-1.3c-0.8,0.7-1.5,1.6-1.8,2.6
			C220.4,1061.7,225.4,1066.4,235,1067.9z"/>
		
			<linearGradient id="SVGID_22_" gradientUnits="userSpaceOnUse" x1="11295.083" y1="2808.9985" x2="11350.4531" y2="2808.9985" gradientTransform="matrix(-0.98 0.19 -0.19 -0.98 11901.3105 1655.7001)">
			<stop  offset="0" style="stop-color:#26264F"/>
			<stop  offset="1" style="stop-color:#444B8C"/>
		</linearGradient>
		<path class="st38" d="M229.9,1036.6c0.9,0.4-1,4-0.3,8.3c1.3,8.4,11.6,16.8,20.4,16c5.2-0.5,6-3.8,14.2-6.4
			c4-1.2,8.2-1.8,12.4-1.7c4.4,8.6,3.7,18.2-1.6,23.7c-5.7,5.8-14.6,4.7-18.4,4.2c-2.5-0.3-10.5-1.3-15.8-7.4
			c-5.5-6.4-2.3-11.5-8-15.5c-2.9-2-6.2-2.4-10.1-6.6c-0.8-0.9-1.6-1.9-2.3-2.9C223.9,1042.9,228.5,1036,229.9,1036.6z"/>
		
			<linearGradient id="SVGID_23_" gradientUnits="userSpaceOnUse" x1="11300.9834" y1="2803.7417" x2="11313.2129" y2="2803.7417" gradientTransform="matrix(-0.98 0.19 -0.19 -0.98 11901.3105 1655.7001)">
			<stop  offset="0" style="stop-color:#FFC444"/>
			<stop  offset="1" style="stop-color:#F36F56"/>
		</linearGradient>
		<path class="st39" d="M271.1,1057.4c0,0-3.3,2.6-9.6,3.5c-0.3,0-0.6,0.2-0.6,0.4c0,0.6,4.5,2.5,8,0.7c2.5-1.2,4.1-4.2,3.6-4.7
			C272.3,1057.1,271.7,1057.2,271.1,1057.4z"/>
	</g>
</g>
</svg>
