<svg xmlns="http://www.w3.org/2000/svg" xmlns:xlink="http://www.w3.org/1999/xlink" viewBox="0 0 2239.12 1995.98"><defs><style>.cls-1{isolation:isolate;}.cls-2,.cls-7{fill:#000057;}.cls-2{opacity:0;}.cls-3{fill:#d8dee8;}.cls-4{fill:#000070;}.cls-19,.cls-21,.cls-5{mix-blend-mode:soft-light;}.cls-5{opacity:0.8;}.cls-19,.cls-21,.cls-6{fill:#fff;}.cls-8{fill:url(#linear-gradient);}.cls-9{fill:#0e00aa;}.cls-10,.cls-35{mix-blend-mode:multiply;}.cls-10,.cls-21,.cls-35{opacity:0.3;}.cls-11{fill:url(#linear-gradient-2);}.cls-12{fill:url(#linear-gradient-3);}.cls-13{fill:#000464;}.cls-14{fill:url(#linear-gradient-4);}.cls-15{fill:url(#linear-gradient-5);}.cls-16{fill:url(#linear-gradient-6);}.cls-17{fill:url(#linear-gradient-7);}.cls-18{fill:#bfc8d6;}.cls-19{opacity:0.48;}.cls-20{fill:url(#linear-gradient-8);}.cls-22{opacity:0.9;}.cls-23{fill:#dfe6ff;}.cls-24{fill:url(#Naamloos_verloop_9);}.cls-25{fill:url(#linear-gradient-9);}.cls-26{fill:url(#Naamloos_verloop_9-2);}.cls-27{fill:url(#linear-gradient-10);}.cls-28{fill:url(#Naamloos_verloop_9-3);}.cls-29{fill:url(#Naamloos_verloop_9-4);}.cls-30{fill:url(#linear-gradient-11);}.cls-31{fill:url(#linear-gradient-12);}.cls-32{fill:url(#linear-gradient-13);}.cls-33{fill:url(#Naamloos_verloop_5);}.cls-34{fill:url(#Naamloos_verloop_5-2);}.cls-35{fill:url(#Naamloos_verloop_5-3);}.cls-36{fill:url(#linear-gradient-14);}.cls-37{fill:url(#linear-gradient-15);}.cls-38{fill:url(#linear-gradient-16);}.cls-39{fill:url(#linear-gradient-17);}.cls-40{fill:url(#linear-gradient-18);}.cls-41{fill:url(#linear-gradient-19);}</style><linearGradient id="linear-gradient" x1="-11037.07" y1="-2520.7" x2="-10845.1" y2="-2222.08" gradientTransform="matrix(0.98, -0.19, 0.19, 0.98, 12579.04, 1094.82)" gradientUnits="userSpaceOnUse"><stop offset="0" stop-color="#fff"/><stop offset="1" stop-color="#f4f7fa"/></linearGradient><linearGradient id="linear-gradient-2" x1="-10675.86" y1="-2854.93" x2="-10901.34" y2="-2303.42" gradientTransform="translate(12200.97 -2023.73) rotate(-27.29)" gradientUnits="userSpaceOnUse"><stop offset="0" stop-color="#ffc444"/><stop offset="1" stop-color="#f36f56"/></linearGradient><linearGradient id="linear-gradient-3" x1="-10571.79" y1="-2718.02" x2="-10855.16" y2="-2204.6" gradientTransform="translate(11298.26 -4302.3) rotate(-40.03)" xlink:href="#linear-gradient"/><linearGradient id="linear-gradient-4" x1="-10511.31" y1="-2684.64" x2="-10794.68" y2="-2171.23" gradientTransform="translate(12200.97 -2023.73) rotate(-27.29)" gradientUnits="userSpaceOnUse"><stop offset="0" stop-color="#e38ddd"/><stop offset="1" stop-color="#9571f6"/></linearGradient><linearGradient id="linear-gradient-5" x1="-10705.98" y1="-2273.96" x2="-10617.61" y2="-1947.9" gradientTransform="translate(7580.28 -8218.31) rotate(-68.88)" xlink:href="#linear-gradient"/><linearGradient id="linear-gradient-6" x1="-10335.7" y1="-2526.39" x2="-10597.75" y2="-2111.99" gradientTransform="translate(12200.97 -2023.73) rotate(-27.29)" gradientUnits="userSpaceOnUse"><stop offset="0" stop-color="#ff9085"/><stop offset="1" stop-color="#fb6fbb"/></linearGradient><linearGradient id="linear-gradient-7" x1="-10357.11" y1="345.26" x2="-10278.95" y2="345.26" gradientTransform="translate(11757.33 622.14) rotate(-1.73)" xlink:href="#linear-gradient-4"/><linearGradient id="linear-gradient-8" x1="9164.5" y1="1943.69" x2="11091.41" y2="1943.69" gradientTransform="matrix(-1, 0, 0, 1, 11371.04, 0)" gradientUnits="userSpaceOnUse"><stop offset="0.49" stop-color="#ebeff2"/><stop offset="1" stop-color="#fff"/></linearGradient><linearGradient id="Naamloos_verloop_9" x1="7974.16" y1="1934.97" x2="8031.58" y2="1934.97" gradientTransform="matrix(-1, 0.03, 0.03, 1, 8277.84, -14)" gradientUnits="userSpaceOnUse"><stop offset="0" stop-color="#000070"/><stop offset="1" stop-color="#000057"/></linearGradient><linearGradient id="linear-gradient-9" x1="11045.31" y1="2132.53" x2="11065.9" y2="2132.53" gradientTransform="matrix(-1, 0, 0, 1, 11371.04, 0)" xlink:href="#linear-gradient-2"/><linearGradient id="Naamloos_verloop_9-2" x1="8209.46" y1="133.49" x2="8270.46" y2="133.49" gradientTransform="matrix(-0.96, 0.27, 0.27, 0.96, 8429.33, -170.19)" xlink:href="#Naamloos_verloop_9"/><linearGradient id="linear-gradient-10" x1="10861.78" y1="2125.73" x2="10887.21" y2="2125.73" gradientTransform="matrix(-1, 0, 0, 1, 11371.04, 0)" xlink:href="#linear-gradient-2"/><linearGradient id="Naamloos_verloop_9-3" x1="-6735.31" y1="2035.55" x2="-6898.02" y2="1668.77" gradientTransform="translate(7264.44)" xlink:href="#Naamloos_verloop_9"/><linearGradient id="Naamloos_verloop_9-4" x1="-7162.97" y1="1154.65" x2="-7325.67" y2="787.88" gradientTransform="matrix(0.99, -0.12, 0.12, 0.99, 7417.02, 29.47)" xlink:href="#Naamloos_verloop_9"/><linearGradient id="linear-gradient-11" x1="-6831.51" y1="1659.82" x2="-6862.53" y2="1571.91" gradientTransform="translate(7182.28 -192.8)" gradientUnits="userSpaceOnUse"><stop offset="0" stop-color="#444b8c"/><stop offset="1" stop-color="#26264f"/></linearGradient><linearGradient id="linear-gradient-12" x1="-6967.04" y1="1532.46" x2="-6955.67" y2="1611.05" gradientTransform="translate(7264.44)" xlink:href="#linear-gradient-11"/><linearGradient id="linear-gradient-13" x1="11009.89" y1="1544.8" x2="11074.18" y2="1544.8" gradientTransform="matrix(-1, 0, 0, 1, 11371.04, 0)" xlink:href="#linear-gradient-2"/><linearGradient id="Naamloos_verloop_5" x1="-6741.64" y1="1539.34" x2="-6802.12" y2="1453.45" gradientTransform="translate(7264.44)" gradientUnits="userSpaceOnUse"><stop offset="0" stop-color="#000057"/><stop offset="1" stop-color="#000070"/></linearGradient><linearGradient id="Naamloos_verloop_5-2" x1="-6857.66" y1="1681.49" x2="-6725.29" y2="1412.61" xlink:href="#Naamloos_verloop_5"/><linearGradient id="Naamloos_verloop_5-3" x1="-6922.32" y1="1508.91" x2="-6631.52" y2="1508.91" xlink:href="#Naamloos_verloop_5"/><linearGradient id="linear-gradient-14" x1="10733.61" y1="1577.68" x2="10776.98" y2="1577.68" gradientTransform="matrix(-1, 0, 0, 1, 11371.04, 0)" xlink:href="#linear-gradient-2"/><linearGradient id="linear-gradient-15" x1="11000.37" y1="1272.61" x2="11115.38" y2="1272.61" gradientTransform="matrix(-1, 0, 0, 1, 11371.04, 0)" xlink:href="#linear-gradient-2"/><linearGradient id="linear-gradient-16" x1="11502.03" y1="-860.21" x2="11566.13" y2="-860.21" gradientTransform="matrix(-0.98, 0.19, 0.19, 0.98, 11811.57, -129.03)" gradientUnits="userSpaceOnUse"><stop offset="0" stop-color="#26264f"/><stop offset="1" stop-color="#444b8c"/></linearGradient><linearGradient id="linear-gradient-17" x1="11503.64" y1="-843.19" x2="11559.27" y2="-843.19" gradientTransform="matrix(-0.98, 0.19, 0.19, 0.98, 11811.57, -129.03)" xlink:href="#linear-gradient-2"/><linearGradient id="linear-gradient-18" x1="11503.09" y1="-838.93" x2="11558.46" y2="-838.93" xlink:href="#linear-gradient-16"/><linearGradient id="linear-gradient-19" x1="11508.99" y1="-833.64" x2="11521.22" y2="-833.64" gradientTransform="matrix(-0.98, 0.19, 0.19, 0.98, 11811.57, -129.03)" xlink:href="#linear-gradient-2"/></defs><g class="cls-1"><g id="Laag_1" data-name="Laag 1"><path class="cls-2" d="M1262.8,193.26c525.57-15.52,980.83,365.83,1049.61,866.22,75.21,547.1-338.7,1039.36-848,1118.21C830.94,2275.75,216.5,1708.42,271.67,1093,313.24,629.25,728.54,209,1262.8,193.26Z" transform="translate(-82.15 -192.8)"/><path class="cls-3" d="M515.22,807l44.68-5a322.14,322.14,0,0,1,10.83-56.47l-40.34-17.27a20,20,0,0,1-10.26-27.46l32.2-65.13a22.24,22.24,0,0,1,28.61-10.23l39.72,17.31a325.53,325.53,0,0,1,37.09-43L633,566a19.58,19.58,0,0,1,5.22-28l59.1-39.57a21.32,21.32,0,0,1,28.84,4.9l24.41,33.23A329.32,329.32,0,0,1,803,517.87l-4-40c-1.09-10.77,7.06-20.21,18.19-21.09l69-5.46c10.94-.86,20.73,7.06,21.88,17.7l4.24,39.11A319.16,319.16,0,0,1,966,517.39L982,482c4.34-9.61,15.87-13.72,25.75-9.2L1069.28,501c9.8,4.48,14.33,15.88,10.13,25.48l-15.33,35.05a313.62,313.62,0,0,1,42.14,33.84l30.62-22.25c8.44-6.14,20.42-4.1,26.78,4.55l39.79,54c6.37,8.65,4.77,20.71-3.59,27l-30.19,22.57a319.37,319.37,0,0,1,20.19,50.42l37.52-4.19c10.42-1.16,20,6.57,21.34,17.28l8.65,67.29c1.39,10.82-6,20.64-16.44,21.93l-37.44,4.62a320.89,320.89,0,0,1-7.27,54.9l35.16,15.31c9.84,4.29,14.52,16,10.44,26.28l-25.7,64.56c-4.14,10.41-15.6,15.41-25.58,11.14l-35.67-15.27a326.08,326.08,0,0,1-33.77,45.52l23.51,32a21.51,21.51,0,0,1-3.89,29.17l-55.43,44.89a19.56,19.56,0,0,1-28.37-3.41l-24-32.71a329.51,329.51,0,0,1-52.8,23.11l4.52,41.77c1.27,11.67-6.91,22.61-18.3,24.41l-71.8,11.35a20,20,0,0,1-23.16-18.12L867,1151a318.72,318.72,0,0,1-57.65-7l-17.7,40.47c-4.9,11.22-17.65,16.79-28.48,12.4l-68-27.54c-10.93-4.43-15.68-17.15-10.61-28.39L703,1100a313.29,313.29,0,0,1-45.74-35.75L621,1091.36c-10,7.46-23.72,5.82-30.67-3.68l-43.46-59.38c-7-9.49-4.4-23.14,5.67-30.46l37-26.89a318.53,318.53,0,0,1-20.1-54.22l-44.91,5.54c-12.19,1.5-22.85-6.83-23.78-18.6l-5.81-73.19C494,818.84,503.11,808.31,515.22,807Zm289.67,208.23c106.54,44.47,228.56-7.56,272.82-113.31,43.21-103.23-3.36-221.18-104.26-266.16-102.2-45.57-224.76-.72-273.6,103C649.78,845,696.89,970.12,804.89,1015.19Z" transform="translate(-82.15 -192.8)"/><path class="cls-4" d="M905.42,1911.35c-81-10.4-183.7-37.75-224.95-114.85-9.81-18.35-19.66-54,5.11-67.4,22.64-12.26,51.91.69,68.74,16.65,12.37,11.74,22,37.93,35.93,46.21,20.34,12.13,31.3-21,30.87-34.6-1-30.52-38.5-43-63.46-49.65-41.41-11-89.64-20.43-87-67.1s48.1-74.67,83.11-54.26c28.84,16.83,24.78,52.74,44.49,74.29,17.51,19.14,23.6-11.93,22.44-27.16-2.54-33.09-31.64-57-53-79.19-24.2-25.07-50.94-75.5-25.14-108.65,14.84-19.07,52.55-23.54,74.84-20.32,109.1,15.75,36.76,156.94,56.59,172.7s38.61-11.83,38.56-53.76,6.37-72.85,50.13-59.43,52.08,122.94,2.12,165,3.13,88,16.55,57.85c9.68-21.78,18.19-78.82,46.18-85.08,46.63-10.4,45.94,84.82,32.52,107-18.81,31.07-61.35,37.82-85.11,64.62-6.9,7.79-22.48,27.07-16.43,38.45,8.44,15.87,32-1.11,40.65-8.46,19.45-16.54,46.38-72.75,73.78-35.42C1106.7,1834.89,1050.11,1903.22,905.42,1911.35Z" transform="translate(-82.15 -192.8)"/><g class="cls-5"><path class="cls-6" d="M893.75,1902.09c1.9,0,3.46-1,3.5-2.89,0-1.65,2.29-167.42-70.22-364.9a3.45,3.45,0,0,0-4.5-1.94,3.59,3.59,0,0,0-2.08,4.56c72.07,196.26,69.83,360.47,69.8,362.11,0,1.94,1.5,3.06,3.43,3.06Z" transform="translate(-82.15 -192.8)"/></g><path class="cls-7" d="M864,1840.32c13.13-11.18,41,6.3,52.61,12.94,6.71,3.86,15.9,9.77,24,6.34,8.49-3.61,7.89-12.51,2.76-18.83-9.19-11.3-26.82-14.4-39.63-19.91-13.76-5.92-26.4-14-33.19-27.87-5.41-11.07-6.65-27.44-.55-38.35,16.86-30.19,41.4-6.63,55.12,11.37,6.66,8.74,21.57,23.79,32.88,13.49,12-11,1.71-30.5-7.62-39.12-12.2-11.26-27-19.09-40.24-28.88-12-8.82-24.27-21.47-16.3-37.12,6.16-12.09,21.66-18.78,34.89-17.75,30.6,2.37,35.37,47,55.52,64.2,7.13,6.06,23.32,10.88,31.82,4.93,8.65-6.07,3-20-.08-27.52-9.23-22.45-75.42-97.72-20.56-107.17,13.81-2.38,32.83,2,43.68,10.75,20.47,16.56,31.33,49.36,36.72,74.25a278,278,0,0,1-1.46,121.58c-20.92,86.06-70.1,113.7-70.1,113.7-21.26,7-47.86,10.45-69.9,5.79-25.92-5.49-56.91-24.67-69.73-48.61C860.44,1860.79,855.83,1847.24,864,1840.32Z" transform="translate(-82.15 -192.8)"/><rect class="cls-8" x="1183.36" y="373.11" width="367.49" height="997.58" transform="translate(-270.35 220.59) rotate(-16.1)"/><rect class="cls-9" x="1119.79" y="432.89" width="277.19" height="167.83" transform="translate(-176.12 176.51) rotate(-16.1)"/><rect class="cls-9" x="1174.27" y="621.61" width="277.19" height="167.83" transform="translate(-226.33 199.02) rotate(-16.1)"/><rect class="cls-9" x="1228.75" y="810.33" width="277.19" height="167.83" transform="matrix(0.96, -0.28, 0.28, 0.96, -276.54, 221.54)"/><rect class="cls-9" x="1283.23" y="999.05" width="277.19" height="167.83" transform="translate(-326.74 244.05) rotate(-16.1)"/><g class="cls-10"><path class="cls-11" d="M1405.3,341.72,1217.61,395.9c30.48,26,58.93,59.51,76.84,102.58,34.08,82,5.88,140.4,13.46,255.34,7.92,119.95,46.29,172.53,83.29,281,27,79.15,53.5,188.76,57.78,332.59l233-67.27Z" transform="translate(-82.15 -192.8)"/></g><rect class="cls-12" x="1362.65" y="380.41" width="367.49" height="997.58" transform="translate(149.86 -512.24) rotate(12.74)"/><rect class="cls-13" x="1483.89" y="431.79" width="277.19" height="167.83" transform="translate(71.56 -537.97) rotate(12.74)"/><rect class="cls-13" x="1440.56" y="623.38" width="277.19" height="167.83" transform="translate(112.75 -523.7) rotate(12.74)"/><rect class="cls-13" x="1397.23" y="814.97" width="277.19" height="167.83" transform="translate(153.94 -509.42) rotate(12.74)"/><rect class="cls-13" x="1353.91" y="1006.56" width="277.19" height="167.83" transform="translate(195.13 -495.15) rotate(12.74)"/><g class="cls-10"><path class="cls-14" d="M1835.64,433.22l-236.08-53.39c26.75,59.5,28.4,106,23.45,139.83-13.93,95.18-84.07,119.34-120.68,234.56-34.34,108-1.6,177.85,3.37,265.68,4.74,83.57-15,195.8-111.21,336.33l221.11,50Z" transform="translate(-82.15 -192.8)"/></g><rect class="cls-15" x="1550.62" y="464.13" width="367.49" height="997.58" transform="translate(994.18 -1101.31) rotate(41.59)"/><rect class="cls-7" x="1837.79" y="597.32" width="277.19" height="167.83" transform="translate(868.2 -1332.95) rotate(41.59)"/><rect class="cls-7" x="1707.4" y="744.23" width="277.19" height="167.83" transform="translate(932.86 -1209.37) rotate(41.59)"/><rect class="cls-7" x="1577.02" y="891.15" width="277.19" height="167.83" transform="translate(997.51 -1085.8) rotate(41.59)"/><rect class="cls-7" x="1446.64" y="1038.07" width="277.19" height="167.83" transform="translate(1062.16 -962.22) rotate(41.59)"/><g class="cls-10"><path class="cls-16" d="M2202.88,711.82l-176.4-156.55c3.1,90-21.56,143.6-46,176.67-57.23,77.31-130.47,65.47-217.17,149.73-81.3,79-85.43,156-122.53,235.76-32.9,70.72-96.27,153.35-227.11,227.73L1540.72,1458Z" transform="translate(-82.15 -192.8)"/></g><circle class="cls-17" cx="1453.99" cy="1278.86" r="39.08" transform="translate(-354.11 208.18) rotate(-14.37)"/><path class="cls-18" d="M279.63,1929.48l1926.91-16.65v49.28c0,13.37-8.4,24.75-19.79,26.78l-544.87,97a75.36,75.36,0,0,1-19.55.91L300.57,1976.19c-11.8-1-20.94-12.39-20.94-26.14Z" transform="translate(-82.15 -192.8)"/><path class="cls-18" d="M988.74,1850.51l1224.7,90.15c21.92,1.61,39.74-15.53,39.74-38.29v-912c0-22.77-17.82-41.22-39.74-41.22l-43.32,25-1181.38-25c-18.06,0-32.65,16.68-32.65,37.26v824.43C956.09,1831.42,970.68,1849.18,988.74,1850.51Z" transform="translate(-82.15 -192.8)"/><path class="cls-6" d="M969.21,1850.51l1224.71,90.15c21.91,1.61,39.73-15.53,39.73-38.29v-912c0-22.77-17.82-41.22-39.73-41.22H969.21c-18.05,0-32.65,16.68-32.65,37.26v824.43C936.56,1831.42,951.16,1849.18,969.21,1850.51Z" transform="translate(-82.15 -192.8)"/><path class="cls-3" d="M1007.36,1792.38l1140.69,78.31c17.83,1.23,32.33-12.84,32.33-31.43V1040.8c0-18.58-14.5-33.71-32.33-33.78l-1140.69-4.92c-14.89-.07-26.94,13.6-26.94,30.53v727.26C980.42,1776.81,992.47,1791.36,1007.36,1792.38Z" transform="translate(-82.15 -192.8)"/><path class="cls-6" d="M1538.31,974.09c0,8.48,6.3,15.37,14.09,15.39s14.12-6.84,14.12-15.33-6.33-15.38-14.12-15.39S1538.31,965.62,1538.31,974.09Z" transform="translate(-82.15 -192.8)"/><path class="cls-19" d="M2193.92,1940.66,975.41,1851l-6.2-.45c-8.28-.61-15.82-4.71-21.57-10.92,87.69-4.8,142.15-35.92,177.28-68.07,70.55-64.57,58.32-128.25,134.4-170.7,94.9-53,169.51,14.15,241.53-52.06,43.65-40.13,22.22-70.06,75.94-130,59.5-66.43,98.24-44.1,158-103.89,75.61-75.59,37.79-134.41,102.92-188.69,79-65.84,164.21-4.9,239.42-68.05,32.44-27.23,50.24-66.83,59.53-108.94h57.23c21.91,0,39.73,18.45,39.73,41.22v912C2233.65,1925.13,2215.83,1942.27,2193.92,1940.66Z" transform="translate(-82.15 -192.8)"/><path class="cls-20" d="M911.51,1845.51l1295,94.89L1641.88,2041a75.36,75.36,0,0,1-19.55.91l-1342.7-112.4,611.28-83.33A98.56,98.56,0,0,1,911.51,1845.51Z" transform="translate(-82.15 -192.8)"/><polygon class="cls-3" points="1935.42 1748.42 857.27 1668.23 523.59 1713.36 1592.46 1799.07 1935.42 1748.42"/><path class="cls-6" d="M1646.7,1569.13v-269.3c0-17.29-14.64-28.08-27.28-20.15l-225.53,141.57c-14.07,8.83-14.07,33.84,0,41.82l225.53,127.86C1632.06,1598.1,1646.7,1586.42,1646.7,1569.13Z" transform="translate(-82.15 -192.8)"/><path class="cls-13" d="M904.69,1704.32c0,27.9,20.66,51.69,46.25,53.15l1117.91,63.94c30.39,1.74,55.13-21.63,55.13-52.2V869.58a54.26,54.26,0,0,0-55.13-54.5L950.94,832.28c-25.59.39-46.25,23.32-46.25,51.21Z" transform="translate(-82.15 -192.8)"/><path class="cls-21" d="M934.79,1681.94c0,26.35,19.22,48.79,43.44,50.12l1053.68,58a48.79,48.79,0,0,0,51.93-49.17V899.09a51.43,51.43,0,0,0-52.1-51.34L978.44,861.51c-24.22.32-43.65,21.94-43.65,48.29Z" transform="translate(-82.15 -192.8)"/><path class="cls-7" d="M904.69,885.59v41.19L2124,917V871.88c0-30.57-26.3-57.25-56.69-56.78L949.61,832.3C924,832.69,904.69,857.7,904.69,885.59Z" transform="translate(-82.15 -192.8)"/><path class="cls-6" d="M2038.15,868.4a21,21,0,0,0,21.25,21.13,21.62,21.62,0,0,0,21.31-21.62,21,21,0,0,0-21.31-21.14A21.64,21.64,0,0,0,2038.15,868.4Z" transform="translate(-82.15 -192.8)"/><path class="cls-6" d="M1973.68,869.14a20.89,20.89,0,0,0,21,21,21.47,21.47,0,0,0,21.12-21.52,20.89,20.89,0,0,0-21.12-21A21.48,21.48,0,0,0,1973.68,869.14Z" transform="translate(-82.15 -192.8)"/><path class="cls-6" d="M1909.81,869.88a20.75,20.75,0,0,0,20.86,20.94,21.32,21.32,0,0,0,20.92-21.42,20.74,20.74,0,0,0-20.92-20.94A21.33,21.33,0,0,0,1909.81,869.88Z" transform="translate(-82.15 -192.8)"/><g class="cls-22"><polygon class="cls-23" points="1657.98 1527.04 1961.55 1542.56 1961.55 780.34 1657.98 781.55 1657.98 1527.04"/><polygon class="cls-23" points="877.73 1000.01 1632.89 1009.69 1632.89 781.65 877.73 784.68 877.73 1000.01"/><polygon class="cls-23" points="1324.3 1261.98 1632.89 1271.93 1632.89 1043.9 1324.3 1039.15 1324.3 1261.98"/><polygon class="cls-23" points="1324.3 1509.88 1632.89 1525.62 1632.89 1297.59 1324.3 1287.05 1324.3 1509.88"/><polygon class="cls-23" points="877.73 1487.2 1289.18 1508.13 1289.18 1038.63 877.73 1032.31 877.73 1487.2"/></g><path class="cls-4" d="M1037.47,1518.94l62.39-91.66a3.34,3.34,0,0,1,2.81-1.45,3.42,3.42,0,0,1,2.8,1.54l35.32,54,58.92-86.6a3.36,3.36,0,0,1,2.83-1.46,3.47,3.47,0,0,1,2.82,1.54l85.46,129.22a4.16,4.16,0,0,1,.16,3.89,3.79,3.79,0,0,1-3,2.14l-117.46-2.42-59.81-1.23-70.47-1.45a3.89,3.89,0,0,1-2.94-2.24A4.14,4.14,0,0,1,1037.47,1518.94Z" transform="translate(-82.15 -192.8)"/><path class="cls-4" d="M1083.94,1369c-.11,15.59,11.69,28.42,26.38,28.64s26.71-12.29,26.79-27.91-11.76-28.4-26.44-28.58S1084.05,1353.47,1083.94,1369Z" transform="translate(-82.15 -192.8)"/><path class="cls-4" d="M1775.25,1048.77c0,15.77,13.58,28.59,29,28.65l173.22.62a28.64,28.64,0,0,0,28.59-28.93v-.17c0-16-12.18-29-28-29l-174.13.12a28.89,28.89,0,0,0-28.65,28.58Z" transform="translate(-82.15 -192.8)"/><path class="cls-4" d="M1423.87,1420.52a7.05,7.05,0,0,0,6.62,7.17l69.31,2.09a6.62,6.62,0,0,0,6.7-6.81h0a7.1,7.1,0,0,0-6.7-7.21l-69.31-2a6.57,6.57,0,0,0-6.62,6.78Z" transform="translate(-82.15 -192.8)"/><path class="cls-4" d="M1423.87,1668.76a7.22,7.22,0,0,0,6.62,7.3l69.31,3.4a6.48,6.48,0,0,0,6.7-6.69h0a7.28,7.28,0,0,0-6.7-7.34l-69.31-3.32a6.42,6.42,0,0,0-6.62,6.65Z" transform="translate(-82.15 -192.8)"/><path class="cls-4" d="M1067.51,1163.6c0,6,4.53,11,10.12,11.05s10.14-4.79,10.14-10.84-4.54-11-10.14-11.06S1067.51,1157.55,1067.51,1163.6Z" transform="translate(-82.15 -192.8)"/><path class="cls-4" d="M1035,1163.25c0,6,4.5,11,10.06,11s10.09-4.78,10.09-10.81-4.52-11-10.09-11S1035,1157.23,1035,1163.25Z" transform="translate(-82.15 -192.8)"/><path class="cls-4" d="M1002.63,1162.91c0,6,4.48,10.94,10,11s10-4.77,10-10.79-4.5-11-10-11S1002.63,1156.9,1002.63,1162.91Z" transform="translate(-82.15 -192.8)"/><path class="cls-4" d="M1777.76,1123.28c0-6.39,6.3-11.55,12.54-11.51l201.5,1.24a11.89,11.89,0,0,1,11.76,11.83v130.8c0,6.5-4.7,11.67-11.14,11.56L1790,1263.72c-6.24-.11-12.28-5.38-12.28-11.77Z" transform="translate(-82.15 -192.8)"/><path class="cls-4" d="M1775.25,1386.7c0,15.77,13.58,28.91,29,29.35l173.22,4.94c15.86.45,28.59-12.18,28.59-28.22v-.16c0-16-12.18-29.36-28-29.75l-174.13-4.2a28,28,0,0,0-28.65,27.88Z" transform="translate(-82.15 -192.8)"/><path class="cls-4" d="M1777.76,1461.29c0-6.4,6.3-11.42,12.54-11.23l201.5,6.25a12.26,12.26,0,0,1,11.76,12.12v130.8c0,6.5-4.7,11.54-11.14,11.27L1790,1602c-6.24-.26-12.28-5.65-12.28-12Z" transform="translate(-82.15 -192.8)"/><path class="cls-7" d="M510,1451.39c16.68-17.81-29.49-84.72-54.21-114-21.59-25.61-43.78-51.94-71-48.61-23.92,2.93-47.2,28.16-48.6,52.35C332.39,1406.15,486.28,1476.71,510,1451.39Z" transform="translate(-82.15 -192.8)"/><path class="cls-24" d="M309.72,2138.9c-3.14,2.55-3.72,8.93-4.1,13.09a10.16,10.16,0,0,0,0,3.45c1.52,4.8,10.81,5.3,25.4,6.79,23,2.36,29.9,4.17,31.7.74,1.69-3.21-2.4-8.47-2.86-9-2.47-3.12-5.51-4.26-11.39-6.19-10.87-3.58-18.22-5.54-20.44-6.13C314.1,2137.89,311.78,2137.23,309.72,2138.9Z" transform="translate(-82.15 -192.8)"/><path class="cls-25" d="M323.42,2117.85l2.31,26.26c-.66,1.27-8.46,5.07-14.66,1.81l-5.93-25.81Z" transform="translate(-82.15 -192.8)"/><path class="cls-26" d="M492.47,2135.53c-3.76,4.15-4.62,11.81-1.35,15.58s8.06.92,21.78,1.33c14.69.44,18.53,3.91,28.51,1.16,4-1.12,11.16-3.82,11-6.7-.09-2-3.72-3.08-15.83-7.13-17.2-5.76-17.12-6.08-20.77-6.68C506.65,2131.57,497.44,2130,492.47,2135.53Z" transform="translate(-82.15 -192.8)"/><path class="cls-27" d="M501.89,2111.56l7.37,24.52c-.56,1.31-8.05,5.7-14.48,2.92l-10.95-23.79Z" transform="translate(-82.15 -192.8)"/><path class="cls-28" d="M436.41,1574.65a2295.89,2295.89,0,0,0,72.56,544l-28.21,7.59c-23.85-22.25-53.95-57.26-68.47-106.74-9-30.72-6-46.5-11.72-84.27-9.1-60.15-27.54-91.66-46.6-140.16-17.12-43.59-37.36-107.55-48.21-193Z" transform="translate(-82.15 -192.8)"/><path class="cls-29" d="M351.53,1566.79q-8.64,157.18-14.08,320.14-4,122.28-6,241.41l-28.81,3.56a335.85,335.85,0,0,1-30.06-77.56c-10.25-41.12-7.88-65.54-12.37-108.17-5.05-47.8-12.38-58.21-25.37-118.52-26.35-122.38-39.53-183.57-10.13-221.64C234.27,1593.66,264.19,1562.66,351.53,1566.79Z" transform="translate(-82.15 -192.8)"/><path class="cls-7" d="M211.55,1303.44a447.63,447.63,0,0,1,95.83-16c57.58-3.26,86.37-4.89,106.78,8.83,47.12,31.67,10.64,104.77,29.92,286,2.76,25.87,3.38,51.93,5.37,77.88,3.3,43,4.06,45.29,1.07,49.65-18.75,27.29-88.68-13.88-191.18,2.39-57.36,9.11-83.37,30.09-99.08,15-18.32-17.65-2.61-65.11,10.92-106,15.53-46.9,25.13-47.5,33.94-82.83,9.22-36.92,3.65-55.93,2.21-114.15A1029.93,1029.93,0,0,1,211.55,1303.44Z" transform="translate(-82.15 -192.8)"/><path class="cls-4" d="M350.93,1643.62c-26.79-2.09-44.17,13.05-67.29,1.25-31.71-16.19-41.9-66.55-39.88-102.19,3.07-54.16,34-68.44,28.66-103.44-2.88-18.93-16.4-44.07-64.93-69.75-.64,21.62-.52,40-.16,54.67,1.44,58.22,7,77.23-2.21,114.15-8.81,35.33-18.41,35.93-33.94,82.83-13.53,40.87-29.24,88.33-10.92,106,15.71,15.13,41.72-5.85,99.08-15,88.32-14,152.42,14.57,180.47,5.3C405.92,1661.45,375.18,1645.52,350.93,1643.62Z" transform="translate(-82.15 -192.8)"/><path class="cls-7" d="M248.09,1307.16c-19.13-15.72-57.61,2.07-67.89,6.83-57.35,26.53-108.85,98-96.09,173.56,1.92,11.33,10.79,64.33,55.66,90,40.5,23.17,95.17,17.21,139-15.61l18-15.93,17.67-19.1A141.86,141.86,0,0,0,267.29,1501c-29.12-9.4-50.33,7.46-63.84-5.36-9.33-8.85-9.35-24.48-7-33.95,4.64-19.09,21.47-24.46,35.52-38C264.92,1391.82,271,1326,248.09,1307.16Z" transform="translate(-82.15 -192.8)"/><polygon class="cls-30" points="440.91 1360.98 184.44 1357.15 252.64 1390.07 441.57 1377.7 440.91 1360.98"/><path class="cls-31" d="M257.55,1556.77h0a11.42,11.42,0,0,0,7.51,10.73L347,1599.63l.37-22.27L266.6,1550A7.08,7.08,0,0,0,257.55,1556.77Z" transform="translate(-82.15 -192.8)"/><path class="cls-32" d="M297,1541.6c-1.58-.35,7.66-18.77,14.92-16.64s42.74,22.69,46,31.16l3.22,8.46s-15.48,1.21-25.08-2S309.84,1544.45,297,1541.6Z" transform="translate(-82.15 -192.8)"/><path class="cls-33" d="M354.19,1421.08l-18.08,164.6c-.63,5.68,7.33,14.14,13,13.87l265.2-16.28a9.3,9.3,0,0,0,8.73-7.71l33.28-159c1-5.78-9.4-11.76-15.27-11.59l-277.91,7.81A9.28,9.28,0,0,0,354.19,1421.08Z" transform="translate(-82.15 -192.8)"/><path class="cls-34" d="M360.25,1425.88l-18.08,164.6a9.29,9.29,0,0,0,9.68,10.3l268.55-12.71a9.31,9.31,0,0,0,8.73-7.71l27.43-159.71a9.28,9.28,0,0,0-9.42-10.86l-277.91,7.81A9.29,9.29,0,0,0,360.25,1425.88Z" transform="translate(-82.15 -192.8)"/><path class="cls-35" d="M517.94,1549.5c-23.45-9.94-15.17-28.89-42.86-52.51-36.53-31.15-73.77-17.64-86.8-41.79-4.06-7.52-6-19.22,1.07-38.17l-20.12.57a9.29,9.29,0,0,0-9,8.28l-18.08,164.6a9.29,9.29,0,0,0,9.68,10.3l268.55-12.71a9.3,9.3,0,0,0,8.73-7.71l3.78-22a101,101,0,0,0-29.24-11C564.27,1539.36,544.94,1560.94,517.94,1549.5Z" transform="translate(-82.15 -192.8)"/><path class="cls-36" d="M637.32,1565.05a2.1,2.1,0,0,0-1.88-2.77c-5.68-.29-18.84-.4-26.11,4-9.44,5.78-21.65,16.33-11.37,21.66l9.6,5a2,2,0,0,0,1.41.19c3.41-.75,17.76-3.93,19.33-4.72S635.21,1571.46,637.32,1565.05Z" transform="translate(-82.15 -192.8)"/><path class="cls-37" d="M311.68,1224.52a200,200,0,0,1-3.56,39.89c-2.07,10.62-3.56,13.36-5.45,15.59-2.86,3.35-7.19,6.16-31.65,12.23-13.31,3.3-15,3.21-15.32,4.53-1.43,6.45,34.86,28.41,72.37,23.12,22.95-3.24,43.83-16.34,42.55-23.21s-24.22-3.21-31.05-15.73c-4.76-8.71.57-21.07,6.87-31.31C340.34,1238.2,317.78,1236,311.68,1224.52Z" transform="translate(-82.15 -192.8)"/><path class="cls-38" d="M352.85,1226c3.95-8.09,1.87-20.49-5.77-27.09-6.58-5.68-15.06-5-20.14-4.63-14.72,1.14-31.71,10.69-35.44,25.17-2.22,8.57,9.06,23.31,10.89,26,2.09,3,4.91,3.67,7.81,5.71,4,2.83,10.31,7.34,20.64,14.92a60,60,0,0,1,1.37-10.4,53,53,0,0,1,4.6-12.81C342.53,1232.27,349.12,1233.7,352.85,1226Z" transform="translate(-82.15 -192.8)"/><path class="cls-39" d="M317.16,1260.69s12.49,13.68,31.08,8.78c16.66-4.38,11.76-42.69-.57-48.61-4.12-2-11.53-1.69-17.07,1.09-3.27,1.64-4.16,3.3-9.55,5.88-5,2.38-6.57,2.09-7.89,3.73-1.65,2-2.31,6.41,3.15,16.82-3.85-2.63-8-3.13-10.44-1.3a5.8,5.8,0,0,0-1.82,2.63C302.53,1254.48,307.55,1259.23,317.16,1260.69Z" transform="translate(-82.15 -192.8)"/><path class="cls-40" d="M312,1229.44c.93.45-1,4-.31,8.3,1.26,8.41,11.65,16.77,20.42,16,5.19-.49,6-3.83,14.23-6.36a38.94,38.94,0,0,1,12.41-1.68c4.43,8.63,3.72,18.23-1.57,23.65-5.7,5.83-14.64,4.71-18.38,4.24-2.5-.32-10.51-1.31-15.8-7.45-5.5-6.4-2.32-11.53-8-15.48-2.86-2-6.18-2.45-10.14-6.61a25,25,0,0,1-2.34-2.87C306,1235.67,310.61,1228.79,312,1229.44Z" transform="translate(-82.15 -192.8)"/><path class="cls-41" d="M353.25,1250.23s-3.27,2.61-9.63,3.48c-.31,0-.63.2-.64.37,0,.62,4.53,2.51,8,.74,2.49-1.25,4.06-4.16,3.58-4.72C354.41,1249.86,353.82,1250,353.25,1250.23Z" transform="translate(-82.15 -192.8)"/></g></g></svg>