<svg id="Laag_1" data-name="Laag 1" xmlns="http://www.w3.org/2000/svg" viewBox="0 0 250.26 250.02"><defs><style>.cls-1{fill:#fff;}.cls-2{fill:none;}.cls-3{fill:#bb9a63;}</style></defs><rect class="cls-1" width="250" height="250"/><rect class="cls-2" x="0.26" y="0.02" width="250" height="250"/><path class="cls-3" d="M159.93,234l-2.65.61a1.23,1.23,0,0,1-1.49-1.07l-.49-4.88a1.22,1.22,0,0,1,.94-1.31l1.47-.34a1.22,1.22,0,0,1,1.41.77l1.68,4.62A1.21,1.21,0,0,1,159.93,234Z"/><path class="cls-3" d="M155.25,213.48l-2.65.6a1.22,1.22,0,0,0-.87,1.6l1.68,4.62a1.2,1.2,0,0,0,1.41.77l1.47-.34a1.21,1.21,0,0,0,.94-1.3l-.5-4.89A1.2,1.2,0,0,0,155.25,213.48Z"/><path class="cls-3" d="M166.2,220.35l.6,2.66a1.21,1.21,0,0,1-1.06,1.48l-4.89.49a1.2,1.2,0,0,1-1.3-.94l-.34-1.47a1.22,1.22,0,0,1,.77-1.41l4.62-1.68A1.22,1.22,0,0,1,166.2,220.35Z"/><path class="cls-3" d="M145.72,225l.61,2.65a1.21,1.21,0,0,0,1.6.87l4.62-1.67a1.24,1.24,0,0,0,.77-1.42L153,224a1.21,1.21,0,0,0-1.31-.93l-4.88.49A1.22,1.22,0,0,0,145.72,225Z"/><path class="cls-3" d="M104.91,42.26l-2-.88a1,1,0,0,1-.45-1.4l2-3.43a1,1,0,0,1,1.24-.4l1.12.48a1,1,0,0,1,.55,1.18l-1.11,3.82A1,1,0,0,1,104.91,42.26Z"/><path class="cls-3" d="M111.64,26.65l-2-.87a1,1,0,0,0-1.34.62l-1.11,3.82a1,1,0,0,0,.56,1.18l1.12.48a1,1,0,0,0,1.24-.4l2-3.43A1,1,0,0,0,111.64,26.65Z"/><path class="cls-3" d="M115.51,36.37l-.88,2a1,1,0,0,1-1.4.45l-3.43-2a1,1,0,0,1-.4-1.24l.48-1.12a1,1,0,0,1,1.18-.55L114.88,35A1,1,0,0,1,115.51,36.37Z"/><path class="cls-3" d="M99.9,29.64l-.88,2A1,1,0,0,0,99.65,33l3.82,1.11a1,1,0,0,0,1.18-.56l.48-1.12a1,1,0,0,0-.4-1.24l-3.43-2A1,1,0,0,0,99.9,29.64Z"/><path class="cls-3" d="M179.28,229.08l-.47-1.49a.68.68,0,0,1,.54-.89l2.75-.51a.69.69,0,0,1,.79.47l.26.82a.69.69,0,0,1-.37.84l-2.55,1.18A.7.7,0,0,1,179.28,229.08Z"/><path class="cls-3" d="M190.72,225.44l-.47-1.48a.7.7,0,0,0-1-.42l-2.54,1.17a.71.71,0,0,0-.38.84l.26.82a.7.7,0,0,0,.79.48l2.76-.52A.7.7,0,0,0,190.72,225.44Z"/><path class="cls-3" d="M187.32,232l-1.48.47a.68.68,0,0,1-.89-.54l-.52-2.75a.69.69,0,0,1,.48-.79l.82-.26a.69.69,0,0,1,.84.37l1.17,2.55A.69.69,0,0,1,187.32,232Z"/><path class="cls-3" d="M183.69,220.56l-1.48.47a.71.71,0,0,0-.43,1l1.18,2.55a.71.71,0,0,0,.84.37l.82-.26a.69.69,0,0,0,.47-.79l-.51-2.76A.7.7,0,0,0,183.69,220.56Z"/><path class="cls-3" d="M197.26,77.3,171.83,51.87,63.89,158.79l-7.07,7.07a9.27,9.27,0,0,1,0-13.11L165.27,44.29a9.28,9.28,0,0,1,13.12,0l26.45,26.46a9.27,9.27,0,0,1,0,13.11L96.39,192.32a9.29,9.29,0,0,1-13.12,0l7.07-7.07Z"/><rect class="cls-3" x="71.08" y="156.85" width="5" height="37.41" transform="translate(-102.58 103.45) rotate(-45)"/><path class="cls-3" d="M89.29,127.34,42.08,80.12a9.66,9.66,0,0,1,0-13.64L66.47,42.1a9.7,9.7,0,0,1,13.72,0l47.17,47.17-7.07,7.07-47-47L49.4,73.3l47,47Z"/><path class="cls-3" d="M176.83,210.74a10,10,0,0,1-7.05-2.91l-48-48,7.07-7.07,48,48,23.89-23.94-48-48,7.07-7.07,47.95,47.94a10,10,0,0,1,0,14.19l-23.93,23.93A10,10,0,0,1,176.83,210.74Z"/><rect class="cls-3" x="169.09" y="54.56" width="5" height="45.96" transform="translate(-4.57 144.04) rotate(-45)"/><rect class="cls-3" x="47.49" y="118.25" width="138.61" height="5" transform="translate(-51.18 117.95) rotate(-45)"/><path class="cls-3" d="M77.74,70.3A2.5,2.5,0,0,1,76,66L86,56a2.5,2.5,0,0,1,3.53,3.53l-10,10.06A2.49,2.49,0,0,1,77.74,70.3Z"/><path class="cls-3" d="M89.74,82.3A2.5,2.5,0,0,1,88,78L98,68a2.5,2.5,0,0,1,3.53,3.53l-10,10.06A2.49,2.49,0,0,1,89.74,82.3Z"/><path class="cls-3" d="M101.74,94.3A2.5,2.5,0,0,1,100,90L110,80a2.5,2.5,0,0,1,3.53,3.53l-10,10.06A2.49,2.49,0,0,1,101.74,94.3Z"/><path class="cls-3" d="M161.74,154.3A2.5,2.5,0,0,1,160,150L170,140a2.5,2.5,0,0,1,3.53,3.53l-10.05,10.06A2.49,2.49,0,0,1,161.74,154.3Z"/><path class="cls-3" d="M174.24,166.8a2.5,2.5,0,0,1-1.77-4.26l10.06-10.06a2.5,2.5,0,0,1,3.53,3.53L176,166.07A2.49,2.49,0,0,1,174.24,166.8Z"/><path class="cls-3" d="M188.83,177.21a2.5,2.5,0,0,1-1.77-4.26l8-8a2.5,2.5,0,0,1,3.53,3.53l-8,8A2.49,2.49,0,0,1,188.83,177.21Z"/><rect class="cls-3" x="60.03" y="130.79" width="138.61" height="5" transform="translate(-56.37 130.49) rotate(-45)"/><path class="cls-3" d="M65.83,81.8a9,9,0,1,1,9-9A9,9,0,0,1,65.83,81.8Zm0-13a4,4,0,1,0,4,4A4,4,0,0,0,65.83,68.8Z"/><path class="cls-3" d="M43.83,208.3a2.49,2.49,0,0,1-2.41-3.15L54.83,155.8c.36-1.33.82.73,2.15,1.09s2.21,4.58,1.85,5.91L47.4,202.16,87.83,189.8c1.33-.39,4.52.48,4.9,1.81s.43,2.81-.9,3.19l-47.3,13.4A2.42,2.42,0,0,1,43.83,208.3Z"/><polygon class="cls-3" points="48.4 188.8 60.54 200.94 43.83 205.8 48.4 188.8"/><path class="cls-3" d="M43.83,208.3a2.49,2.49,0,0,1-2.41-3.15l4.57-17A2.5,2.5,0,0,1,50.17,187L62.3,199.17a2.5,2.5,0,0,1-1.06,4.17L44.53,208.2A2.42,2.42,0,0,1,43.83,208.3Zm5.86-14.67-2.29,8.53,8.38-2.44Z"/></svg>