<svg id="Laag_1" data-name="Laag 1" xmlns="http://www.w3.org/2000/svg" viewBox="0 0 250 250"><defs><style>.cls-1{fill:#fff;}.cls-2,.cls-3{fill:#086572;}.cls-3{stroke:#000057;stroke-linecap:round;stroke-linejoin:round;stroke-width:10px;}</style></defs><rect class="cls-1" width="250" height="250"/><path class="cls-2" d="M102.87,46.55l-2.59.86a1.21,1.21,0,0,1-1.57-.92l-1-4.81a1.22,1.22,0,0,1,.81-1.39l1.43-.48a1.23,1.23,0,0,1,1.48.63l2.11,4.43A1.22,1.22,0,0,1,102.87,46.55Z" transform="translate(-0.26 -0.02)"/><path class="cls-2" d="M96.25,26.62l-2.59.86A1.22,1.22,0,0,0,93,29.16l2.11,4.43a1.23,1.23,0,0,0,1.48.63L98,33.75a1.22,1.22,0,0,0,.81-1.39l-1-4.82A1.21,1.21,0,0,0,96.25,26.62Z" transform="translate(-0.26 -0.02)"/><path class="cls-2" d="M107.8,32.41l.86,2.59a1.21,1.21,0,0,1-.92,1.57l-4.81,1a1.22,1.22,0,0,1-1.4-.81l-.47-1.43a1.23,1.23,0,0,1,.63-1.48l4.43-2.11A1.22,1.22,0,0,1,107.8,32.41Z" transform="translate(-0.26 -0.02)"/><path class="cls-2" d="M87.87,39l.86,2.59a1.22,1.22,0,0,0,1.68.71l4.43-2.11a1.23,1.23,0,0,0,.63-1.48L95,37.31a1.22,1.22,0,0,0-1.39-.81l-4.81,1A1.21,1.21,0,0,0,87.87,39Z" transform="translate(-0.26 -0.02)"/><path class="cls-2" d="M55,206.49l-2.12-.62a1,1,0,0,1-.63-1.33l1.58-3.65a1,1,0,0,1,1.18-.56l1.17.34a1,1,0,0,1,.69,1.1l-.62,3.93A1,1,0,0,1,55,206.49Z" transform="translate(-0.26 -0.02)"/><path class="cls-2" d="M59.7,190.16l-2.12-.61a1,1,0,0,0-1.25.79l-.63,3.92a1,1,0,0,0,.7,1.1l1.17.34a1,1,0,0,0,1.18-.55l1.58-3.65A1,1,0,0,0,59.7,190.16Z" transform="translate(-0.26 -0.02)"/><path class="cls-2" d="M64.73,199.33l-.61,2.12a1,1,0,0,1-1.34.63l-3.65-1.58a1,1,0,0,1-.55-1.18l.34-1.17a1,1,0,0,1,1.1-.69l3.92.63A1,1,0,0,1,64.73,199.33Z" transform="translate(-0.26 -0.02)"/><path class="cls-2" d="M48.41,194.58l-.62,2.12a1,1,0,0,0,.79,1.25l3.93.63a1,1,0,0,0,1.1-.7l.34-1.17a1,1,0,0,0-.55-1.18L49.75,194A1,1,0,0,0,48.41,194.58Z" transform="translate(-0.26 -0.02)"/><path class="cls-2" d="M128.69,30l-1.06,1.13a.7.7,0,0,1-1,0L124.78,29a.69.69,0,0,1,0-.91l.58-.63a.69.69,0,0,1,.92-.09L128.58,29A.7.7,0,0,1,128.69,30Z" transform="translate(-0.26 -0.02)"/><path class="cls-2" d="M119.9,21.86,118.84,23a.7.7,0,0,0,.1,1l2.28,1.65a.7.7,0,0,0,.91-.09l.59-.63a.7.7,0,0,0,0-.92l-1.81-2.15A.69.69,0,0,0,119.9,21.86Z" transform="translate(-0.26 -0.02)"/><path class="cls-2" d="M127.28,21.59l1.14,1.07a.68.68,0,0,1,0,1l-2.15,1.8a.7.7,0,0,1-.92,0l-.63-.58a.71.71,0,0,1-.09-.92l1.65-2.27A.69.69,0,0,1,127.28,21.59Z" transform="translate(-0.26 -0.02)"/><path class="cls-2" d="M119.11,30.38l1.14,1.06a.69.69,0,0,0,1-.1l1.64-2.28a.68.68,0,0,0-.09-.91l-.62-.59a.69.69,0,0,0-.92,0l-2.16,1.8A.69.69,0,0,0,119.11,30.38Z" transform="translate(-0.26 -0.02)"/><path class="cls-3" d="M177.5,110" transform="translate(-0.26 -0.02)"/><path class="cls-2" d="M235,183H207a5,5,0,0,1-5-5,88.18,88.18,0,0,0-13.38-47.06,5,5,0,1,1,8.46-5.33A97.91,97.91,0,0,1,211.88,173h18C227.39,114.66,181.3,68,125,68S22.61,114.66,20.11,173h16C38.56,123.48,77.05,84,124,84a83.72,83.72,0,0,1,46.4,14.11,5,5,0,0,1-5.53,8.33A73.72,73.72,0,0,0,124,94c-43,0-78,37.68-78,84a5,5,0,0,1-5,5H15a5,5,0,0,1-5-5C10,111.83,61.59,58,125,58s115,53.83,115,120A5,5,0,0,1,235,183Z" transform="translate(-0.26 -0.02)"/><path class="cls-2" d="M216,87a5,5,0,0,1-3.77-1.71C193.9,64.26,157.21,49,125,49a5,5,0,0,1,0-10c35.41,0,74.38,16.33,94.77,39.71A5,5,0,0,1,216,87Z" transform="translate(-0.26 -0.02)"/><path class="cls-2" d="M66.16,119.19a4.94,4.94,0,0,1-3.53-1.46L44.39,99.49a5,5,0,1,1,7.07-7.07L69.7,110.66a5,5,0,0,1-3.54,8.53Z" transform="translate(-0.26 -0.02)"/><path class="cls-2" d="M124,94a5,5,0,0,1-5-5V63a5,5,0,0,1,10,0V89A5,5,0,0,1,124,94Z" transform="translate(-0.26 -0.02)"/><path class="cls-2" d="M156,191a4.84,4.84,0,0,1-1.7-.3,5,5,0,0,1-3-6.4l22.3-61.76-60.82,23.13a5,5,0,0,1-3.56-9.34l71-27a5,5,0,0,1,6.48,6.37l-26,72A5,5,0,0,1,156,191Z" transform="translate(-0.26 -0.02)"/><path class="cls-3" d="M125,138" transform="translate(-0.26 -0.02)"/><path class="cls-3" d="M159,172" transform="translate(-0.26 -0.02)"/><path class="cls-2" d="M125,211a39,39,0,0,1-18.22-73.49,5,5,0,0,1,4.68,8.84A29,29,0,0,0,125,201c11,0,21.73-8.79,26.65-17.47a5,5,0,0,1,8.7,4.94C154.19,199.32,140.5,211,125,211Z" transform="translate(-0.26 -0.02)"/></svg>