<svg id="Laag_1" data-name="Laag 1" xmlns="http://www.w3.org/2000/svg" viewBox="0 0 250 250"><defs><style>.cls-1{fill:#fff;}.cls-2{fill:#008b3c;}</style></defs><rect class="cls-1" width="250" height="250"/><path class="cls-2" d="M27.35,203l-2.69.43a1.22,1.22,0,0,1-1.41-1.16l-.16-4.91a1.21,1.21,0,0,1,1-1.24l1.49-.24a1.22,1.22,0,0,1,1.35.87l1.36,4.71A1.21,1.21,0,0,1,27.35,203Z" transform="translate(-0.26 -0.02)"/><path class="cls-2" d="M24.07,182.3l-2.69.42a1.23,1.23,0,0,0-1,1.54L21.76,189a1.21,1.21,0,0,0,1.36.86l1.49-.23a1.22,1.22,0,0,0,1-1.24l-.15-4.91A1.23,1.23,0,0,0,24.07,182.3Z" transform="translate(-0.26 -0.02)"/><path class="cls-2" d="M34.52,189.9l.43,2.69A1.23,1.23,0,0,1,33.79,194l-4.91.15a1.21,1.21,0,0,1-1.24-1l-.24-1.49a1.23,1.23,0,0,1,.87-1.36L33,188.92A1.22,1.22,0,0,1,34.52,189.9Z" transform="translate(-0.26 -0.02)"/><path class="cls-2" d="M13.78,193.18l.42,2.69a1.23,1.23,0,0,0,1.54,1l4.72-1.37a1.2,1.2,0,0,0,.86-1.35l-.23-1.49a1.22,1.22,0,0,0-1.24-1l-4.91.16A1.22,1.22,0,0,0,13.78,193.18Z" transform="translate(-0.26 -0.02)"/><path class="cls-2" d="M210.88,42.17l-2,.91a1,1,0,0,1-1.35-.6l-1.18-3.8a1,1,0,0,1,.54-1.19L208,37a1,1,0,0,1,1.24.38l2.08,3.39A1,1,0,0,1,210.88,42.17Z" transform="translate(-0.26 -0.02)"/><path class="cls-2" d="M203.86,26.69l-2,.91a1,1,0,0,0-.43,1.41l2.07,3.39a1,1,0,0,0,1.25.38l1.11-.5a1,1,0,0,0,.53-1.19l-1.18-3.8A1,1,0,0,0,203.86,26.69Z" transform="translate(-0.26 -0.02)"/><path class="cls-2" d="M213.65,30.37l.91,2a1,1,0,0,1-.6,1.34l-3.8,1.18a1,1,0,0,1-1.19-.53l-.5-1.11a1,1,0,0,1,.38-1.25l3.39-2.07A1,1,0,0,1,213.65,30.37Z" transform="translate(-0.26 -0.02)"/><path class="cls-2" d="M198.17,37.39l.91,2a1,1,0,0,0,1.41.43l3.39-2.08a1,1,0,0,0,.38-1.24l-.5-1.11a1,1,0,0,0-1.19-.54L198.77,36A1,1,0,0,0,198.17,37.39Z" transform="translate(-0.26 -0.02)"/><path class="cls-2" d="M50.79,213.9,49.72,215a.69.69,0,0,1-1,0l-1.8-2.15a.7.7,0,0,1,0-.92l.58-.63a.71.71,0,0,1,.92-.09l2.27,1.65A.69.69,0,0,1,50.79,213.9Z" transform="translate(-0.26 -0.02)"/><path class="cls-2" d="M42,205.73l-1.06,1.13a.7.7,0,0,0,.1,1l2.28,1.64a.68.68,0,0,0,.91-.09l.59-.63a.68.68,0,0,0,0-.91L43,205.75A.69.69,0,0,0,42,205.73Z" transform="translate(-0.26 -0.02)"/><path class="cls-2" d="M49.38,205.46l1.14,1.06a.69.69,0,0,1,0,1l-2.15,1.8a.69.69,0,0,1-.92,0l-.63-.59a.7.7,0,0,1-.09-.91l1.65-2.28A.69.69,0,0,1,49.38,205.46Z" transform="translate(-0.26 -0.02)"/><path class="cls-2" d="M41.21,214.24l1.13,1.07a.7.7,0,0,0,1-.11L45,212.93a.69.69,0,0,0-.09-.92l-.63-.58a.7.7,0,0,0-.92,0l-2.15,1.8A.69.69,0,0,0,41.21,214.24Z" transform="translate(-0.26 -0.02)"/><path class="cls-2" d="M173.5,176.5H37.82A11.34,11.34,0,0,1,26.5,165.18V59.82A11.34,11.34,0,0,1,37.82,48.5H190.18A11.34,11.34,0,0,1,201.5,59.82V112.5h-10V59.82a1.32,1.32,0,0,0-1.32-1.32H37.82a1.32,1.32,0,0,0-1.32,1.32V165.18a1.32,1.32,0,0,0,1.32,1.32H173.5Z" transform="translate(-0.26 -0.02)"/><rect class="cls-2" x="31.24" y="140.71" width="142" height="5"/><path class="cls-2" d="M213.12,200.5H179.88a10.38,10.38,0,0,1-10.38-10.38V119.88a10.38,10.38,0,0,1,10.38-10.38h33.24a10.38,10.38,0,0,1,10.38,10.38v70.24A10.38,10.38,0,0,1,213.12,200.5Zm-33.24-83a2.39,2.39,0,0,0-2.38,2.38v70.24a2.39,2.39,0,0,0,2.38,2.38h33.24a2.39,2.39,0,0,0,2.38-2.38V119.88a2.39,2.39,0,0,0-2.38-2.38Z" transform="translate(-0.26 -0.02)"/><rect class="cls-2" x="173.24" y="177.48" width="46" height="5"/><path class="cls-2" d="M204.39,126.49H189.83a2.5,2.5,0,0,1,0-5h14.56a2.5,2.5,0,0,1,0,5Z" transform="translate(-0.26 -0.02)"/><circle class="cls-2" cx="197.24" cy="187.48" r="3"/><path class="cls-2" d="M114,161.5a4.5,4.5,0,1,1,4.5-4.5A4.51,4.51,0,0,1,114,161.5Zm0-5a.5.5,0,1,0,.5.5A.5.5,0,0,0,114,156.5Z" transform="translate(-0.26 -0.02)"/><path class="cls-2" d="M143.17,201.5h-58a5,5,0,1,1,0-10h58a5,5,0,0,1,0,10Z" transform="translate(-0.26 -0.02)"/><rect class="cls-2" x="82.22" y="179" width="25.37" height="10" transform="translate(-102.82 246.2) rotate(-80.2)"/><rect class="cls-2" x="127.93" y="171.27" width="10" height="25.47" transform="translate(-32.9 28.69) rotate(-10.99)"/></svg>