<svg xmlns="http://www.w3.org/2000/svg" xmlns:xlink="http://www.w3.org/1999/xlink" width="1920" height="800" viewBox="0 0 1920 800"><defs><style>.a{fill:#1986ff;}.b{fill:#000057;}.c{clip-path:url(#d);}.d{clip-path:url(#a);}.e{fill:#000070;}.f{clip-path:url(#b);}.g{fill:#000464;}.h{fill:#fff;}</style><clipPath id="a"><path class="a" d="M908.375.607C1008.593,7.6,1150.763-8.716,1176.4,40.228s-66.423,163.145-113.036,251.71c-47.778,87.4-50.109,148-13.984,302.984,34.96,154.988,110.706,405.533,58.266,400.871S875.746,731.265,696.286,730.1c-178.295,0-356.589,257.537-491.767,309.976C70.507,1092.516-20.388,938.693-51.852,783.7s-5.827-309.976,54.77-430c60.6-121.194,153.823-206.262,254.041-243.553s205.1-24.472,279.678-46.613c74.581-23.306,116.532-79.242,166.641-90.9C752.222-39.014,809.323-7.55,908.375.607Z" transform="translate(493.586 1430.21) rotate(-150)"/></clipPath><clipPath id="b"><path class="b" d="M26057.588-1074.617c-168.338-35.322-337.061-48.34-506.039-46.366s-338.236,20.949-506.85,1.631c-168.627-18.722-336.6-75.731-504.949-110.449-168.336-35.322-337.061-48.34-506.307-30.37s-339.057,68.946-508.219,81.621c-169.164,13.278-337.68-11.744-506.217-35.761s-337.045-49.04-506.127-41.064-338.684,46.947-423.5,67.129l-84.8,19.787,2.717-159.974,84.445,1.512c84.451,1.512,253.338,4.535,422.227,7.551l506.67,9.071,506.678,9.071q253.333,4.524,506.672,9.063l506.67,9.071,191.141,3.421V-1509.7h-125.248v-32l84.459-48c84.459-48,253.377-144,422.295-165.3,168.916-21.7,337.834,32.3,506.752,63.994,168.91,32.306,337.828,42.3,506.744,37.3s337.836-27,506.754-10.7c168.916,15.7,337.826,69.7,506.744,101.4,168.918,32.3,337.836,42.3,506.754,21.3s337.826-75,506.752-90.7c168.91-16.3,337.828,5.7,506.744,26.7s337.836,43,506.754,32,337.826-52.994,422.285-74.7l84.459-21.3v160H26623.791v263.882l365.783,6.548,84.445,1.512-.545,31.993-85.262,46.478c-85.264,46.485-255.789,139.449-425.043,157.724a624.5,624.5,0,0,1-68.568,3.664C26348.5-997.9,26203.18-1044.6,26057.588-1074.617Z" transform="translate(-24703.789 1778.998)"/></clipPath><clipPath id="d"><rect width="1920" height="800"/></clipPath></defs><g id="c" class="c"><rect class="h" width="1920" height="800"/><path class="b" d="M26057.588-1074.617c-168.338-35.322-337.061-48.34-506.039-46.366s-338.236,20.949-506.85,1.631c-111.9-12.424-223.5-41.7-335.119-70.145h-5.791v-1.474c-54.66-13.911-109.334-27.548-164.039-38.83-168.336-35.322-337.061-48.34-506.307-30.37s-339.057,68.946-508.219,81.621c-169.164,13.278-337.68-11.744-506.217-35.761s-337.045-49.04-506.127-41.064-338.684,46.947-423.5,67.129l-84.8,19.787,2.717-159.974,84.445,1.512c84.451,1.512,253.338,4.535,422.227,7.551l506.67,9.071,506.678,9.071q253.333,4.524,506.672,9.063l506.67,9.071,163.131,2.92V-1509.7h-97.238v-32l84.459-48c84.459-48,253.377-144,422.295-165.3,168.916-21.7,337.834,32.3,506.752,63.994,168.91,32.306,337.828,42.3,506.744,37.3s337.836-27,506.754-10.7c168.916,15.7,337.826,69.7,506.744,101.4,168.918,32.3,337.836,42.3,506.754,21.3s337.826-75,506.752-90.7c168.91-16.3,337.828,5.7,506.744,26.7s337.836,43,506.754,32,337.826-52.994,422.285-74.7l84.459-21.3v160H26623.791v263.882l365.783,6.548,84.445,1.512-.545,31.993-85.262,46.478c-85.264,46.485-255.789,139.449-425.043,157.724a624.5,624.5,0,0,1-68.568,3.664C26348.5-997.9,26203.18-1044.6,26057.588-1074.617Z" transform="translate(-24703.789 1778.947)"/><g class="d"><path class="e" d="M26057.588-1074.617c-168.338-35.322-337.061-48.34-506.039-46.366s-338.236,20.949-506.85,1.631c-111.9-12.424-223.5-41.7-335.119-70.145h-5.791v-1.474c-54.66-13.911-109.334-27.548-164.039-38.83-168.336-35.322-337.061-48.34-506.307-30.37s-339.057,68.946-508.219,81.621c-169.164,13.278-337.68-11.744-506.217-35.761s-337.045-49.04-506.127-41.064-338.684,46.947-423.5,67.129l-84.8,19.787,2.717-159.974,84.445,1.512c84.451,1.512,253.338,4.535,422.227,7.551l506.67,9.071,506.678,9.071q253.333,4.524,506.672,9.063l506.67,9.071,163.131,2.92V-1509.7h-97.238v-32l84.459-48c84.459-48,253.377-144,422.295-165.3,168.916-21.7,337.834,32.3,506.752,63.994,168.91,32.306,337.828,42.3,506.744,37.3s337.836-27,506.754-10.7c168.916,15.7,337.826,69.7,506.744,101.4,168.918,32.3,337.836,42.3,506.754,21.3s337.826-75,506.752-90.7c168.91-16.3,337.828,5.7,506.744,26.7s337.836,43,506.754,32,337.826-52.994,422.285-74.7l84.459-21.3v160H26623.791v263.882l365.783,6.548,84.445,1.512-.545,31.993-85.262,46.478c-85.264,46.485-255.789,139.449-425.043,157.724a624.5,624.5,0,0,1-68.568,3.664C26348.5-997.9,26203.18-1044.6,26057.588-1074.617Z" transform="translate(-24703.789 1778.951)"/></g><g class="f"><path class="g" d="M590.774-23.5c54.411,80.105,38.541,235.025-21.916,343.848-59.7,108.822-163.989,172.3-156.432,240.315C419.984,627.918,538.63,699.71,595.309,804c57.434,103.532,52.9,239.56-9.068,309.841C523.516,1184.12,404.114,1188.654,290,1178.83c-114.112-10.58-221.423-37.03-276.59-111.089C-42.51,993.681-45.533,870.5-42.51,777.548-40.243,683.84-31.93,620.361-4.724,572c27.961-48.365,74.815-80.105,117.891-94.464s82.372-9.824,110.334-105.8S267.331,80.029,338.368-15.19C410.16-109.654,535.608-103.608,590.774-23.5Z" transform="translate(1790.879 342.005) rotate(74)"/></g></g></svg>