<svg xmlns="http://www.w3.org/2000/svg" xmlns:xlink="http://www.w3.org/1999/xlink" width="1920" height="1298" viewBox="0 0 1920 1298"><defs><style>.a{fill:#000070;}.b{fill:#000464;}.c{clip-path:url(#d);}.d{fill:#000057;}.e{clip-path:url(#a);}.f{clip-path:url(#b);}.g{fill:#fff;}</style><clipPath id="a"><path class="a" d="M908.375.607C1008.593,7.6,1150.763-8.716,1176.4,40.228s-66.423,163.145-113.036,251.71c-47.778,87.4-50.109,148-13.984,302.984,34.96,154.988,110.706,405.533,58.266,400.871S875.746,731.265,696.286,730.1c-178.295,0-356.589,257.537-491.767,309.976C70.507,1092.516-20.388,938.693-51.852,783.7s-5.827-309.976,54.77-430c60.6-121.194,153.823-206.262,254.041-243.553s205.1-24.472,279.678-46.613c74.581-23.306,116.532-79.242,166.641-90.9C752.222-39.014,809.323-7.55,908.375.607Z" transform="translate(-21292.529 8425.023) rotate(-162)"/></clipPath><clipPath id="b"><path class="b" d="M590.774-23.5c54.411,80.105,38.541,235.025-21.916,343.848-59.7,108.822-163.989,172.3-156.432,240.315C419.984,627.918,538.63,699.71,595.309,804c57.434,103.532,52.9,239.56-9.068,309.841C523.516,1184.12,404.114,1188.654,290,1178.83c-114.112-10.58-221.423-37.03-276.59-111.089C-42.51,993.681-45.533,870.5-42.51,777.548-40.243,683.84-31.93,620.361-4.724,572c27.961-48.365,74.815-80.105,117.891-94.464s82.372-9.824,110.334-105.8S267.331,80.029,338.368-15.19C410.16-109.654,535.608-103.608,590.774-23.5Z" transform="translate(1096.496 1637.971) rotate(-115)"/></clipPath><clipPath id="d"><rect width="1920" height="1298"/></clipPath></defs><g id="c" class="c"><rect class="g" width="1920" height="1298"/><path class="d" d="M26057.588-596.757c-168.338-32.971-337.061-45.122-506.039-43.28s-338.236,19.562-506.85,1.522c-168.627-17.469-336.6-70.69-504.949-103.1-168.336-32.964-337.061-45.122-506.307-28.341s-339.057,64.35-508.219,76.182c-169.164,12.395-337.68-10.963-506.217-33.381s-337.045-45.776-506.127-38.331-338.684,43.822-423.5,62.668l-84.8,18.463,2.717-149.326,84.445,1.411,422.227,7.056q253.342,4.223,506.67,8.46l506.678,8.467q253.333,4.233,506.672,8.46l506.67,8.467,163.131,2.726v-737.725h-97.238v-29.871l84.459-44.8c84.459-44.8,253.377-134.415,422.295-154.3,168.916-20.257,337.834,30.149,506.752,59.734,168.91,30.156,337.828,39.485,506.744,34.82s337.836-25.2,506.754-9.989c168.916,14.654,337.826,65.059,506.744,94.652,168.918,30.149,337.836,39.485,506.754,19.881s337.826-70.009,506.752-84.663c168.91-15.217,337.828,5.325,506.744,24.921s337.836,40.138,506.754,29.871,337.826-49.467,422.285-69.724l84.459-19.881v149.347H26623.791v769.8l365.783,6.113,84.445,1.411-.545,29.864-85.262,43.392c-85.264,43.384-255.789,130.16-425.043,147.219a668.769,668.769,0,0,1-68.574,3.421C26348.492-525.143,26203.18-568.73,26057.588-596.757Z" transform="translate(-24703.789 1792.998)"/><g class="e" transform="translate(22003 -6821.46)"><path class="a" d="M26057.588-596.757c-168.338-32.971-337.061-45.122-506.039-43.28s-338.236,19.562-506.85,1.522c-168.627-17.469-336.6-70.69-504.949-103.1-168.336-32.964-337.061-45.122-506.307-28.341s-339.057,64.35-508.219,76.182c-169.164,12.395-337.68-10.963-506.217-33.381s-337.045-45.776-506.127-38.331-338.684,43.822-423.5,62.668l-84.8,18.463,2.717-149.326,84.445,1.411,422.227,7.056q253.342,4.223,506.67,8.46l506.678,8.467q253.333,4.233,506.672,8.46l506.67,8.467,163.131,2.726v-737.725h-97.238v-29.871l84.459-44.8c84.459-44.8,253.377-134.415,422.295-154.3,168.916-20.257,337.834,30.149,506.752,59.734,168.91,30.156,337.828,39.485,506.744,34.82s337.836-25.2,506.754-9.989c168.916,14.654,337.826,65.059,506.744,94.652,168.918,30.149,337.836,39.485,506.754,19.881s337.826-70.009,506.752-84.663c168.91-15.217,337.828,5.325,506.744,24.921s337.836,40.138,506.754,29.871,337.826-49.467,422.285-69.724l84.459-19.881v149.347H26623.791v769.8l365.783,6.113,84.445,1.411-.545,29.864-85.262,43.392c-85.264,43.384-255.789,130.16-425.043,147.219a668.769,668.769,0,0,1-68.574,3.421C26348.492-525.143,26203.18-568.73,26057.588-596.757Z" transform="translate(-46706.789 8614.998)"/></g><g class="f"><path class="b" d="M26057.588-596.757c-168.338-32.971-337.061-45.122-506.039-43.28s-338.236,19.562-506.85,1.522c-168.627-17.469-336.6-70.69-504.949-103.1-168.336-32.964-337.061-45.122-506.307-28.341s-339.057,64.35-508.219,76.182c-169.164,12.395-337.68-10.963-506.217-33.381s-337.045-45.776-506.127-38.331-338.684,43.822-423.5,62.668l-84.8,18.463,2.717-149.326,84.445,1.411,422.227,7.056q253.342,4.223,506.67,8.46l506.678,8.467q253.333,4.233,506.672,8.46l506.67,8.467,163.131,2.726v-737.725h-97.238v-29.871l84.459-44.8c84.459-44.8,253.377-134.415,422.295-154.3,168.916-20.257,337.834,30.149,506.752,59.734,168.91,30.156,337.828,39.485,506.744,34.82s337.836-25.2,506.754-9.989c168.916,14.654,337.826,65.059,506.744,94.652,168.918,30.149,337.836,39.485,506.754,19.881s337.826-70.009,506.752-84.663c168.91-15.217,337.828,5.325,506.744,24.921s337.836,40.138,506.754,29.871,337.826-49.467,422.285-69.724l84.459-19.881v149.347H26623.791v769.8l365.783,6.113,84.445,1.411-.545,29.864-85.262,43.392c-85.264,43.384-255.789,130.16-425.043,147.219a668.769,668.769,0,0,1-68.574,3.421C26348.492-525.143,26203.18-568.73,26057.588-596.757Z" transform="translate(-24703.789 1791.57)"/></g></g></svg>