<svg id="Laag_1" data-name="Laag 1" xmlns="http://www.w3.org/2000/svg" viewBox="0 0 250.26 250.02"><defs><style>.cls-1{fill:#fff;}.cls-2{fill:none;}.cls-3{fill:#6c0123;}</style></defs><rect class="cls-1" width="250" height="250"/><rect class="cls-2" x="0.26" y="0.02" width="250" height="250"/><path class="cls-3" d="M52.86,234l-2.48,1.13a1.21,1.21,0,0,1-1.66-.74l-1.47-4.68a1.22,1.22,0,0,1,.66-1.47l1.37-.63a1.23,1.23,0,0,1,1.54.47l2.57,4.18A1.2,1.2,0,0,1,52.86,234Z" transform="translate(0 0)"/><path class="cls-3" d="M44.15,214.9,41.67,216a1.2,1.2,0,0,0-.53,1.74L43.71,222a1.21,1.21,0,0,0,1.54.47l1.37-.62a1.22,1.22,0,0,0,.66-1.47l-1.47-4.69A1.21,1.21,0,0,0,44.15,214.9Z" transform="translate(0 0)"/><path class="cls-3" d="M56.25,219.42l1.13,2.48a1.21,1.21,0,0,1-.74,1.66L52,225a1.22,1.22,0,0,1-1.47-.66L49.86,223a1.2,1.2,0,0,1,.47-1.53l4.18-2.58A1.2,1.2,0,0,1,56.25,219.42Z" transform="translate(0 0)"/><path class="cls-3" d="M37.15,228.14l1.13,2.47a1.2,1.2,0,0,0,1.74.53l4.18-2.57a1.22,1.22,0,0,0,.47-1.54L44,225.66a1.22,1.22,0,0,0-1.47-.66l-4.68,1.47A1.21,1.21,0,0,0,37.15,228.14Z" transform="translate(0 0)"/><path class="cls-3" d="M217.45,45.53l-.64-2.11a1,1,0,0,1,.78-1.26l3.91-.67a1,1,0,0,1,1.11.69l.35,1.17a1,1,0,0,1-.54,1.18l-3.63,1.61A1,1,0,0,1,217.45,45.53Z" transform="translate(0 0)"/><path class="cls-3" d="M233.72,40.62l-.64-2.12a1,1,0,0,0-1.34-.61l-3.63,1.61a1,1,0,0,0-.55,1.19l.36,1.16a1,1,0,0,0,1.1.69l3.92-.67A1,1,0,0,0,233.72,40.62Z" transform="translate(0 0)"/><path class="cls-3" d="M228.78,49.83l-2.11.64a1,1,0,0,1-1.26-.77l-.67-3.92a1,1,0,0,1,.69-1.11l1.17-.35a1,1,0,0,1,1.18.54l1.61,3.63A1,1,0,0,1,228.78,49.83Z" transform="translate(0 0)"/><path class="cls-3" d="M223.86,33.56l-2.11.64a1,1,0,0,0-.61,1.34l1.61,3.63a1,1,0,0,0,1.18.55l1.17-.36a1,1,0,0,0,.69-1.1l-.67-3.92A1,1,0,0,0,223.86,33.56Z" transform="translate(0 0)"/><path class="cls-3" d="M26.87,212.57l-1.55-.18a.7.7,0,0,1-.6-.85l.66-2.73a.7.7,0,0,1,.75-.53l.86.1a.7.7,0,0,1,.62.68l0,2.81A.7.7,0,0,1,26.87,212.57Z" transform="translate(0 0)"/><path class="cls-3" d="M28.21,200.64l-1.55-.17a.69.69,0,0,0-.77.7l0,2.8a.7.7,0,0,0,.62.68l.86.1a.7.7,0,0,0,.75-.53l.65-2.73A.69.69,0,0,0,28.21,200.64Z" transform="translate(0 0)"/><path class="cls-3" d="M32.81,206.41,32.64,208a.71.71,0,0,1-.85.6l-2.73-.66a.69.69,0,0,1-.53-.75l.1-.86a.7.7,0,0,1,.68-.62l2.8,0A.69.69,0,0,1,32.81,206.41Z" transform="translate(0 0)"/><path class="cls-3" d="M20.89,205.07l-.18,1.55a.7.7,0,0,0,.7.77l2.81,0a.7.7,0,0,0,.68-.62l.1-.85a.7.7,0,0,0-.53-.76l-2.73-.65A.68.68,0,0,0,20.89,205.07Z" transform="translate(0 0)"/><path class="cls-3" d="M208.42,182.8H41.58A15.1,15.1,0,0,1,26.5,167.72V69.88A15.09,15.09,0,0,1,41.58,54.8H54.11a5,5,0,0,1,0,10H41.58a5.08,5.08,0,0,0-5.08,5.08v97.84a5.09,5.09,0,0,0,5.08,5.08H208.42a5.09,5.09,0,0,0,5.08-5.08V69.88a5.08,5.08,0,0,0-5.08-5.08H92.5a5,5,0,0,1,0-10H208.42A15.09,15.09,0,0,1,223.5,69.88v97.84A15.1,15.1,0,0,1,208.42,182.8Z" transform="translate(0 0)"/><path class="cls-3" d="M175.72,219.8H74.33a5,5,0,1,1,0-10H175.72a5,5,0,0,1,0,10Z" transform="translate(0 0)"/><rect class="cls-3" x="136.75" y="177.8" width="10" height="36"/><rect class="cls-3" x="102.77" y="177.8" width="10" height="37"/><path class="cls-3" d="M107.77,154.8H47.5a5,5,0,0,1,0-10h60.27a5,5,0,0,1,0,10Z" transform="translate(0 0)"/><path class="cls-3" d="M107.77,135.8H47.5a5,5,0,1,1,0-10h60.27a5,5,0,0,1,0,10Z" transform="translate(0 0)"/><path class="cls-3" d="M87.5,117.5h-40a5,5,0,0,1,0-10h40a5,5,0,0,1,0,10Z" transform="translate(0 0)"/><path class="cls-3" d="M157.5,148.8a31,31,0,1,1,31-31A31,31,0,0,1,157.5,148.8Zm0-52a21,21,0,1,0,21,21A21,21,0,0,0,157.5,96.8Z" transform="translate(0 0)"/><path class="cls-3" d="M203.5,167.8a5,5,0,0,1-3.54-1.47l-27.12-27.12a5,5,0,0,1,7.08-7.07L207,159.26a5,5,0,0,1-3.54,8.54Z" transform="translate(0 0)"/><path class="cls-3" d="M73.5,78.8a5,5,0,0,1-5-5v-28a5,5,0,0,1,10,0v28A5,5,0,0,1,73.5,78.8Z" transform="translate(0 0)"/><path class="cls-3" d="M87.55,53.75A5,5,0,0,1,84,52.29l-10-10-10,10a5,5,0,1,1-7.07-7.08L70.46,31.67a5,5,0,0,1,7.08,0L91.08,45.21a5,5,0,0,1-3.53,8.54Z" transform="translate(0 0)"/></svg>